<?xml version="1.0" encoding="UTF-8" standalone="no"?>
<svg
   width="107.20849mm"
   height="100.00269mm"
   viewBox="-930.8042 -496.00003 107.2085 100.00268"
   version="1.1"
   id="svg76"
   sodipodi:docname="kis_lud.svg"
   inkscape:version="1.4.2 (f4327f4, 2025-05-13)"
   inkscape:export-filename="Egyszer vol h nem ludas.jpg"
   inkscape:export-xdpi="200"
   inkscape:export-ydpi="200"
   xmlns:inkscape="http://www.inkscape.org/namespaces/inkscape"
   xmlns:sodipodi="http://sodipodi.sourceforge.net/DTD/sodipodi-0.dtd"
   xmlns="http://www.w3.org/2000/svg"
   xmlns:svg="http://www.w3.org/2000/svg">
  <defs
     id="defs76">
    <inkscape:path-effect
       effect="bspline"
       id="path-effect276"
       is_visible="true"
       lpeversion="1.3"
       weight="33.333333"
       steps="2"
       helper_size="0"
       apply_no_weight="true"
       apply_with_weight="true"
       only_selected="false"
       uniform="false" />
    <inkscape:path-effect
       effect="bspline"
       id="path-effect276-9"
       is_visible="true"
       lpeversion="1.3"
       weight="33.333333"
       steps="2"
       helper_size="0"
       apply_no_weight="true"
       apply_with_weight="true"
       only_selected="false"
       uniform="false" />
    <inkscape:path-effect
       effect="bspline"
       id="path-effect276-94"
       is_visible="true"
       lpeversion="1.3"
       weight="33.333333"
       steps="2"
       helper_size="0"
       apply_no_weight="true"
       apply_with_weight="true"
       only_selected="false"
       uniform="false" />
    <inkscape:path-effect
       effect="bspline"
       id="path-effect276-3"
       is_visible="true"
       lpeversion="1.3"
       weight="33.333333"
       steps="2"
       helper_size="0"
       apply_no_weight="true"
       apply_with_weight="true"
       only_selected="false"
       uniform="false" />
    <inkscape:path-effect
       effect="bspline"
       id="path-effect276-2"
       is_visible="true"
       lpeversion="1.3"
       weight="33.333333"
       steps="2"
       helper_size="0"
       apply_no_weight="true"
       apply_with_weight="true"
       only_selected="false"
       uniform="false" />
    <inkscape:path-effect
       effect="bspline"
       id="path-effect276-9-7"
       is_visible="true"
       lpeversion="1.3"
       weight="33.333333"
       steps="2"
       helper_size="0"
       apply_no_weight="true"
       apply_with_weight="true"
       only_selected="false"
       uniform="false" />
    <inkscape:path-effect
       effect="bspline"
       id="path-effect276-1"
       is_visible="true"
       lpeversion="1.3"
       weight="33.333333"
       steps="2"
       helper_size="0"
       apply_no_weight="true"
       apply_with_weight="true"
       only_selected="false"
       uniform="false" />
    <inkscape:path-effect
       effect="bspline"
       id="path-effect276-9-7-0"
       is_visible="true"
       lpeversion="1.3"
       weight="33.333333"
       steps="2"
       helper_size="0"
       apply_no_weight="true"
       apply_with_weight="true"
       only_selected="false"
       uniform="false" />
    <inkscape:path-effect
       effect="bspline"
       id="path-effect276-9-5"
       is_visible="true"
       lpeversion="1.3"
       weight="33.333333"
       steps="2"
       helper_size="0"
       apply_no_weight="true"
       apply_with_weight="true"
       only_selected="false"
       uniform="false" />
    <inkscape:path-effect
       effect="bspline"
       id="path-effect276-1-3"
       is_visible="true"
       lpeversion="1.3"
       weight="33.333333"
       steps="2"
       helper_size="0"
       apply_no_weight="true"
       apply_with_weight="true"
       only_selected="false"
       uniform="false" />
  </defs>
  <sodipodi:namedview
     id="namedview76"
     pagecolor="#ffffff"
     bordercolor="#999999"
     borderopacity="1"
     inkscape:showpageshadow="2"
     inkscape:pageopacity="0"
     inkscape:pagecheckerboard="0"
     inkscape:deskcolor="#d1d1d1"
     inkscape:document-units="mm"
     inkscape:zoom="0.43413205"
     inkscape:cx="-99.048203"
     inkscape:cy="187.7309"
     inkscape:window-width="1920"
     inkscape:window-height="991"
     inkscape:window-x="-9"
     inkscape:window-y="-9"
     inkscape:window-maximized="1"
     inkscape:current-layer="svg76" />
  <g
     id="g1"
     transform="translate(-691.13859,-154.94374)">
    <g
       id="g77">
      <path
         style="fill:#e3d7c0;fill-opacity:0.6;stroke:none;stroke-width:0.05mm"
         d="m -194.06282,-341.05477 c 0.43073,0.20178 0.65402,0.67078 0.90335,1.0541 0.98665,1.76012 1.68088,3.66399 2.38736,5.54869 1.60484,4.40583 2.96985,8.89357 4.40742,13.35551 1.72172,5.41726 3.43081,10.83696 5.10739,16.26719 0.68583,2.01911 1.77405,3.8866 2.85472,5.69933 1.37899,2.33971 2.37577,4.87411 3.47429,7.35073 1.86204,4.26371 3.65506,8.55982 4.91301,13.04699 0.31902,1.05189 0.44886,2.17584 0.96507,3.15855 0.35841,0.70246 1.136,1.0422 1.88265,1.14222 1.60566,0.23183 3.23912,0.2874 4.8578,0.17942 1.06976,-0.0731 2.07922,-0.46708 3.10331,-0.75261 3.94914,-1.18057 7.83094,-2.57583 11.78282,-3.74864 1.10254,-0.31148 2.26954,-0.64943 3.37876,-0.7486 1.38347,-0.12012 2.84042,0.0452 4.04267,0.78683 0.93098,0.54424 1.67223,1.34749 2.58095,1.92547 1.16851,0.84008 2.45811,1.48413 3.68656,2.2272 0.4137,0.28943 0.91812,0.534 1.16109,0.99687 0.0237,0.32477 -0.35009,0.4838 -0.58182,0.63439 -0.73832,0.38685 -1.58874,0.46073 -2.39394,0.62691 -2.68947,0.4468 -5.41126,0.76174 -8.13333,0.93833 -1.89866,0.0922 -3.86035,0.11204 -5.71928,0.62944 -2.56476,0.69129 -5.08078,1.62248 -7.36961,2.98501 -2.84383,1.6799 -5.45592,3.71373 -8.07141,5.72213 -4.39397,3.41053 -8.8336,6.8426 -13.82829,9.34105 -3.70089,1.85517 -7.64476,3.12264 -11.63344,4.23714 -2.02408,0.56592 -4.07769,1.03268 -6.15839,1.33527 -0.60615,0.87764 -1.36612,1.63968 -2.23248,2.26069 -0.64153,0.4732 -1.30968,0.93061 -2.06444,1.20051 -0.78181,0.43463 -1.2721,1.18756 -1.93101,1.75393 -0.38146,0.32825 -0.7869,0.70784 -1.30143,0.78636 -0.13498,-0.0138 -0.38868,-0.17505 -0.23725,-0.32568 0.18653,-0.26757 0.30287,-0.72785 -0.0456,-0.9186 -0.52504,-0.23829 -1.1251,-0.0842 -1.68051,-0.16494 -0.0714,-0.24691 0.11907,-0.41586 0.27563,-0.56861 0.12569,-0.0676 0.0612,-0.36193 0.21123,-0.30384 0.38653,0.10009 0.9546,-0.0862 0.94117,-0.55558 -0.0264,-0.38665 -0.48322,-0.5525 -0.80734,-0.40656 -0.23289,0.0778 -0.49867,0.19182 -0.59538,0.4355 -0.68791,-0.18971 -1.30553,0.30283 -1.79163,0.72448 -0.68478,0.59656 -1.35141,1.28595 -2.23321,1.57925 -0.23499,0.12741 -0.58763,-0.12774 -0.39669,-0.37799 0.24609,-0.30308 0.24506,-0.82453 -0.14323,-1.01062 -0.38249,-0.24877 -0.91732,-0.033 -1.26164,-0.34362 -0.0722,-0.25675 0.25605,-0.42681 0.44207,-0.53629 0.32865,-0.14082 0.74717,-0.31162 0.76507,-0.73088 0.13073,-0.29721 0.0489,-0.38222 -0.2494,-0.25109 -1.70967,0.38164 -3.41613,0.79173 -5.0696,1.37627 -2.04023,0.6688 -4.11186,1.17266 -6.19977,1.66696 -0.6044,-0.2663 -1.17415,-0.64285 -1.63939,-1.11273 -0.53016,-0.60868 -0.39373,-1.65771 0.28771,-2.09858 1.33817,-1.03514 2.84444,-1.83106 4.36423,-2.56375 1.63927,-0.78155 3.40385,-1.28821 4.99091,-2.17981 1.00275,-0.58591 1.66031,-1.57481 2.38793,-2.44909 0.35663,-0.48904 0.79239,-0.96082 0.95399,-1.55705 0.0879,-0.3294 -0.20977,-0.56697 -0.50472,-0.61458 -0.58414,-0.17489 -1.23166,-0.24186 -1.69968,-0.67462 -0.28386,-0.30283 -0.56957,-0.64172 -0.99383,-0.74506 -1.06081,-0.31916 -2.23933,-0.0683 -3.25644,-0.55346 -0.60324,-0.33849 -1.10111,-0.83368 -1.69692,-1.18679 -0.77798,-0.55867 -1.76829,-0.83431 -2.38594,-1.59924 -0.51049,-0.65589 -0.31307,-1.51896 -0.39615,-2.28326 -0.0521,-0.64046 -0.65232,-0.99093 -1.13972,-1.29776 -0.49108,-0.32855 -1.06926,-0.74476 -1.23678,-1.3641 -0.36675,-0.67264 -1.11097,-1.00068 -1.75074,-1.35787 -0.91805,-0.48656 -1.87305,-0.97058 -2.6057,-1.72317 -0.17947,-0.18257 -0.15263,-0.46242 -0.32699,-0.65397 -0.37912,-0.62138 -0.92948,-1.11994 -1.29634,-1.74725 -0.20222,-0.3862 0.22343,-0.70595 0.42457,-0.98671 0.22106,-0.21608 0.44021,-0.59854 0.17295,-0.86651 -0.38616,-0.3018 -0.84253,-0.51177 -1.20142,-0.85421 -0.50349,-0.45146 -1.03162,-0.9228 -1.33127,-1.53958 0.0483,-0.56178 -0.46491,-0.93018 -0.87172,-1.21759 -0.56451,-0.41524 -1.26336,-0.67322 -1.71399,-1.2266 -0.218,-0.39205 -0.23287,-0.89797 -0.0851,-1.31759 0.24833,-0.50298 0.71601,-0.84791 1.0721,-1.27104 -1.08045,-1.15813 -2.27889,-2.22724 -3.16365,-3.55127 -0.12959,-0.24372 -0.35379,-0.51916 -0.282,-0.80734 0.36061,-0.18246 0.86354,0.0312 1.17918,-0.27345 0.22705,-0.26694 -0.12356,-0.52934 -0.2905,-0.71984 -0.64664,-0.70981 -1.41683,-1.30256 -2.01938,-2.05158 -0.14445,-0.17874 0.24124,-0.14501 0.34807,-0.1823 1.3526,-0.11392 2.71331,-0.0621 4.06939,-0.0959 0.12644,-0.0295 0.6889,0.0548 0.48281,-0.0614 -1.14734,-0.69012 -2.38453,-1.2555 -3.39238,-2.15354 -1.16851,-0.9597 -1.97936,-2.26816 -2.70002,-3.57815 -0.12154,-0.23286 -0.23931,-0.46902 -0.32994,-0.71583 1.30445,0.4632 2.51113,1.16264 3.82709,1.59855 1.27118,0.48933 2.64018,0.67012 3.99596,0.68022 0.33744,-0.0256 0.82646,0.0205 0.97228,-0.36387 0.0367,-0.36044 -0.37041,-0.50748 -0.59116,-0.71506 -2.05484,-1.55411 -4.22751,-2.94845 -6.26492,-4.52666 -0.61977,-0.52655 -1.37016,-1.05656 -1.56796,-1.89414 -0.0894,-0.51478 -0.0861,-1.05188 0.0288,-1.56254 2.2432,1.16096 4.2902,2.63129 6.4779,3.88939 3.31425,1.92638 6.71767,3.71511 10.26221,5.18144 2.2436,0.87467 4.47827,1.77481 6.71961,2.65517 0.37417,0.11102 0.76881,0.3628 1.16548,0.24298 0.31164,-0.14392 0.16415,-0.52236 0.085,-0.76674 -0.23188,-1.2836 -0.24809,-2.59437 -0.43497,-3.88462 -0.0265,-0.37254 -0.15472,-0.79473 0.0534,-1.15481 0.4136,-0.40807 1.02717,-0.49237 1.5527,-0.69161 0.31298,-0.10085 0.62601,-0.20156 0.93876,-0.3031 -0.6348,-0.89472 -1.28621,-1.80429 -1.61091,-2.86612 -0.18593,-0.62002 -0.38626,-1.30273 -0.18896,-1.94317 0.12603,-0.31092 0.5747,-0.18331 0.75091,-0.45792 0.25145,-0.33045 -0.0829,-0.70644 -0.28786,-0.96504 -0.72164,-0.81957 -1.27633,-1.77911 -1.71891,-2.73887 -0.17836,-0.43916 -0.45348,-0.94478 -0.30185,-1.45811 0.21845,-0.88836 1.17559,-1.37015 2.03733,-1.34803 0.3371,0.0324 0.80434,-0.0627 0.84426,-0.46846 0.0447,-0.60996 -0.20089,-1.1967 -0.3299,-1.78497 -0.43482,-1.64709 -0.75035,-3.3662 -0.80445,-5.08422 0.0138,-0.2668 -0.0225,-0.57059 0.11647,-0.80661 0.50294,0.13411 0.85839,0.56528 1.32182,0.79052 0.20536,0.16322 0.56858,0.21119 0.67409,-0.0874 0.11751,-0.56105 -0.0753,-1.13231 -0.1902,-1.68007 -0.16933,-0.75178 -0.48521,-1.45504 -0.76595,-2.16842 -0.10987,-0.36729 -0.26475,-0.77159 -0.15068,-1.15251 0.70577,0.16241 1.37067,0.50832 2.01027,0.79172 1.06625,0.48224 2.07506,1.07712 3.05929,1.70692 0.26483,0.13265 0.52965,0.26529 0.79448,0.39794 -0.64824,-1.28012 -1.64638,-2.3486 -2.25047,-3.6547 -0.78906,-1.62947 -0.76304,-3.48675 -0.79619,-5.25549 -2.1e-4,-1.08661 -0.0115,-2.17708 0.0994,-3.25918 0.8815,1.1141 1.52426,2.3903 2.40126,3.52231 1.34413,1.78328 2.84875,3.47304 4.63399,4.82668 0.4659,0.30916 0.89237,0.72659 1.44322,0.87461 0.35975,0.086 0.58362,-0.31688 0.49193,-0.62648 -0.20027,-0.93131 -0.64287,-1.78808 -1.00812,-2.66212 -1.14947,-2.60878 -2.42692,-5.16164 -3.51706,-7.79676 -0.4169,-0.98635 -0.68291,-2.04293 -0.6702,-3.11895 -0.0212,-0.98589 0.16757,-2.10333 0.99545,-2.74361 0.091,-0.0957 0.2281,-0.17035 0.32772,-0.0333 0.34038,0.39341 0.54259,0.8946 0.80649,1.34304 1.85015,3.45427 3.44814,7.03037 5.3465,10.46212 1.92687,3.5339 4.06892,6.95178 6.42005,10.21876 1.10437,1.46112 2.24568,2.90266 3.53177,4.20936 0.20046,0.18159 0.46179,0.48415 0.75711,0.31946 0.27851,-0.25608 -0.0143,-0.61461 -0.0958,-0.8961 -0.70205,-1.77058 -1.46723,-3.51919 -2.03088,-5.34151 -1.03143,-3.0956 -1.7853,-6.29896 -2.62596,-9.45991 -0.46613,-1.73992 -0.91947,-3.48606 -1.19734,-5.26784 -0.28488,-1.61246 -0.44713,-3.23853 -0.47065,-4.86423 -0.0213,-1.73341 -0.0223,-3.47741 0.21751,-5.19738 0.0522,-0.22489 0.0489,-0.52405 0.266,-0.65808 z"
         id="path4" />
      <path
         style="fill:#ffffff;fill-opacity:1;stroke:#000000;stroke-width:0.05mm;stroke-opacity:1"
         d="m -198.49955,-246.86844 c -1.54065,0.14453 -3.08511,0.29688 -4.60775,0.57021 -0.24249,0.0711 -0.48498,0.14216 -0.72747,0.21325 0.22968,0.0908 0.49336,0.17307 0.70245,0.26911 -0.24768,0.22041 -0.37565,0.65315 -0.0651,0.88185 0.48754,0.38146 1.08606,0.64605 1.70294,0.71618 0.68201,-0.0525 1.26742,-0.47107 1.82412,-0.83447 0.62933,-0.43686 1.22011,-0.95644 1.59226,-1.63663 0.28199,-0.28821 -0.001,-0.23262 -0.25328,-0.19584 -0.056,0.005 -0.1121,0.0109 -0.16814,0.0163 z"
         id="path5" />
      <path
         style="fill:#ffffff;fill-opacity:1;stroke:#000000;stroke-width:0.05mm;stroke-opacity:1"
         d="m -205.19552,-245.9714 c -1.32685,0.22639 -2.64599,0.49234 -3.96796,0.74585 0.60726,0.26791 1.16753,0.70049 1.84038,0.78418 0.43899,0.0572 0.72967,-0.36605 1.15024,-0.38558 0.70021,-0.26534 1.30803,-0.71785 1.8751,-1.19799 -0.29925,0.0179 -0.59851,0.0357 -0.89776,0.0535 z"
         id="path6" />
      <path
         style="fill:#000000;fill-rule:evenodd;stroke:none"
         d="m -203.27776,-241.3607 c 0.30321,-0.18076 0.90658,-0.69702 1.34085,-1.14722 0.51688,-0.53586 0.95087,-0.86298 1.25667,-0.94724 0.69169,-0.19055 2.49808,-1.41238 3.20918,-2.17065 0.58308,-0.62176 0.97289,-1.13177 0.97838,-1.28006 0.005,-0.12631 -0.5287,-0.0796 -0.96697,0.0848 -0.24462,0.0917 -0.60998,0.19406 -0.81189,0.22732 -0.21452,0.0354 -0.45166,0.20112 -0.57049,0.39884 -0.40971,0.68164 -2.22275,1.84839 -2.84058,1.82803 -0.50215,-0.0167 -1.56334,-0.51129 -1.55543,-0.72513 0.004,-0.0979 0.0992,-0.24563 0.21248,-0.32824 0.37744,-0.27539 0.22148,-0.3711 -0.65163,-0.39987 -0.79289,-0.0261 -0.93192,0.0116 -1.65282,0.44982 -0.4329,0.26316 -0.87722,0.47733 -0.98736,0.47599 -0.11014,-0.002 -0.31986,0.077 -0.46604,0.17401 -0.3937,0.26132 -0.65796,0.21057 -1.69302,-0.32523 -1.49814,-0.77554 -2.34738,-0.6427 -2.1919,0.34284 0.058,0.36767 0.0202,0.42193 -0.4201,0.60174 -1.01071,0.41275 -0.94916,1.15845 0.0985,1.193 0.66556,0.022 0.87598,0.2626 0.58542,0.66961 -0.23337,0.32694 9.4e-4,0.73719 0.42904,0.75131 0.43308,0.0143 1.2511,-0.4436 2.07062,-1.15905 0.89121,-0.77799 1.27442,-0.99924 1.7078,-0.98593 0.41009,0.0127 0.4799,0.26654 0.1412,0.51367 -0.11844,0.0864 -0.20041,0.30035 -0.18481,0.48236 0.0273,0.31885 0.0506,0.32708 0.92956,0.32916 0.95737,0.003 1.0683,0.0944 0.74536,0.61932 -0.10481,0.17035 -0.0891,0.28394 0.0602,0.43516 0.28961,0.2933 0.59996,0.26589 1.22777,-0.1084 z"
         id="path38" />
      <path
         style="fill:#000000;fill-rule:evenodd;stroke:none"
         d="m -214.20424,-249.52995 c -0.46219,0.21829 -1.57273,0.66809 -2.50821,1.01928 -1.95548,0.73416 -3.85218,1.70096 -5.24695,2.61164 -0.69727,0.45532 -1.26987,0.89801 -1.65573,1.27969 -0.38578,0.38168 -0.5521,0.71616 -0.5521,0.8269 0,-0.034 0.0598,0.18326 0.20053,0.39646 0.14072,0.21319 0.34232,0.46176 0.56055,0.67999 0.43185,0.43189 0.68601,0.61771 1.06989,0.68869 0.38378,0.0709 0.95181,0.0115 1.93164,-0.16708 h 0.001 c 1.3212,-0.24091 3.32889,-0.80603 5.03278,-1.37302 0.85208,-0.28354 1.62973,-0.56818 2.20785,-0.81033 0.28904,-0.12107 0.52897,-0.23209 0.69739,-0.32324 0.0312,-0.0169 0.0459,-0.0305 0.0721,-0.0476 -0.0367,-0.0261 -0.0563,-0.0666 -0.0541,-0.11127 -0.0179,0.005 -0.0252,0.005 -0.0455,0.0106 -0.22336,0.0641 -0.43229,0.12152 -0.59098,0.16409 -0.0794,0.0213 -0.14572,0.0389 -0.19674,0.0514 -0.0255,0.006 -0.0473,0.0117 -0.0667,0.0158 -0.0195,0.004 -0.003,0.0109 -0.089,0.0109 -0.0682,0 -0.15274,-0.0331 -0.20246,-0.0789 -0.0497,-0.0458 -0.0697,-0.0914 -0.0811,-0.12433 -0.0229,-0.0658 -0.0196,-0.0975 -0.0188,-0.1257 0.001,-0.0563 0.0107,-0.0942 0.021,-0.13825 0.019,-0.0819 0.0511,-0.177 0.0898,-0.28 -0.0714,-0.009 -0.20285,0.0272 -0.26474,0.12735 -0.25827,0.41788 -0.82193,0.81916 -1.42664,1.18421 -0.30228,0.18252 -0.61151,0.34457 -0.89276,0.46365 -0.28125,0.11908 -0.51959,0.20416 -0.76462,0.19672 -0.19458,-0.006 -0.32388,-0.01 -0.47317,-0.0743 -0.0373,-0.0162 -0.0804,-0.0358 -0.13224,-0.0928 -0.0519,-0.0569 -0.10128,-0.18952 -0.0724,-0.29578 0.01,-0.0363 0.0289,-0.0386 0.0441,-0.0628 -0.2167,0.12778 -0.48028,0.29813 -0.74447,0.48951 -0.41416,0.29998 -0.72669,0.50695 -0.95563,0.63235 -0.11447,0.0627 -0.20193,0.10663 -0.30585,0.13251 -0.052,0.013 -0.11062,0.0269 -0.21142,10e-4 -0.10083,-0.0284 -0.22345,-0.17343 -0.23429,-0.27865 -0.0217,-0.21039 0.0563,-0.25467 0.11646,-0.34284 0.0602,-0.0881 0.13928,-0.18475 0.24298,-0.30011 0.20743,-0.2308 0.51141,-0.53186 0.91672,-0.90585 0.0203,-0.0187 0.0236,-0.0265 0.0432,-0.0449 -1.40967,1.13125 -2.62332,1.92422 -3.27255,2.19641 -0.1662,0.0697 -0.26859,0.1365 -0.48053,0.0947 -0.053,-0.0104 -0.1207,-0.0351 -0.17932,-0.0917 -0.0586,-0.0566 -0.0939,-0.14111 -0.10123,-0.20844 -0.0147,-0.13461 0.0279,-0.20663 0.0664,-0.277 0.15387,-0.28141 0.48373,-0.60288 1.10989,-1.14963 0.0234,-0.0204 0.0237,-0.0255 0.0463,-0.0454 -0.1818,0.13055 -0.30619,0.19995 -0.52082,0.36816 -0.52319,0.40994 -0.79056,0.63718 -1.09765,0.72052 -0.0768,0.0208 -0.16904,0.0349 -0.27048,7.3e-4 -0.10144,-0.0321 -0.18967,-0.11572 -0.23291,-0.19317 -0.0865,-0.15494 -0.0795,-0.28076 -0.0795,-0.42911 0,-0.28644 0.15872,-0.43881 0.3385,-0.62366 0.0346,-0.0356 0.0799,-0.0697 0.11838,-0.10504 -0.17233,-0.0403 -0.22437,-0.27109 0.0229,-0.45956 0.0255,-0.0195 0.051,-0.0388 0.0764,-0.0583 0.18995,-0.13059 0.38941,-0.2479 0.60544,-0.3306 0.12448,-0.0481 0.24787,-0.0986 0.37113,-0.14966 -0.005,-0.005 -0.01,-0.008 -0.0144,-0.0139 -0.0497,-0.0682 -0.0639,-0.16528 -0.0541,-0.22693 0.0195,-0.12326 0.0651,-0.15265 0.0933,-0.18311 0.0564,-0.0609 0.10574,-0.0941 0.17279,-0.13958 0.13403,-0.0911 0.32443,-0.20249 0.56704,-0.33579 0.4852,-0.26663 1.17212,-0.61551 1.92731,-0.9823 1.51023,-0.73358 3.2825,-1.53518 4.2543,-1.88156 0.4245,-0.15137 0.75519,-0.30975 1.07154,-0.50149 z"
         id="path39" />
      <path
         style="fill:#000000;fill-rule:evenodd;stroke:none"
         d="m -213.03011,-250.54192 c -0.0789,0.0816 -0.16245,0.18625 -0.23862,0.26123 -0.26636,0.26209 -0.49948,0.47696 -0.71756,0.62448 0.2414,-0.16659 0.48004,-0.35934 0.74503,-0.63104 0.0601,-0.0616 0.14819,-0.1857 0.21115,-0.25467 z"
         id="path40" />
      <path
         style="fill:#000000;fill-rule:evenodd;stroke:none"
         d="m -220.6484,-258.53789 c 0.0134,0.006 0.0245,0.0182 0.0384,0.024 -0.0123,-0.009 -0.0263,-0.0145 -0.0384,-0.024 z"
         id="path41" />
      <path
         style="fill:#000000;fill-rule:evenodd;stroke:none"
         d="m -209.03457,-260.23281 c -0.11248,0.10291 -0.18506,0.16202 -0.30041,0.26829 -2.19995,2.02649 -3.70844,3.22537 -4.9596,3.75311 -0.39917,0.16833 -0.76956,0.23593 -1.12866,0.25985 0.0512,0.003 0.0604,0.0145 0.11508,0.0179 0.64957,0.0414 1.10147,0.0967 1.47425,0.21497 0.37277,0.11828 0.65808,0.30926 0.91809,0.56924 0.27154,0.27155 0.88162,0.60388 1.20077,0.66772 0.23792,0.0476 0.45249,0.1279 0.62665,0.23429 0.17416,0.10641 0.36081,0.23297 0.36081,0.51153 0,0.12055 -0.0525,0.21018 -0.0955,0.30616 0.19449,-0.27478 0.32278,-0.44202 0.5434,-0.75754 1.42446,-2.03754 2.95562,-4.11664 3.47964,-4.70438 0.1272,-0.1427 0.16113,-0.21298 0.2468,-0.32571 -0.0917,0.0742 -0.15921,0.11111 -0.27292,0.22287 -0.45551,0.44757 -1.07642,1.19479 -1.87995,2.26086 -0.42749,0.56717 -0.83426,1.04126 -1.19152,1.39398 -0.3574,0.35273 -0.63599,0.59284 -0.95728,0.67347 -0.45215,0.11349 -0.95169,0.0383 -1.36923,-0.12519 -0.20874,-0.0817 -0.39713,-0.18579 -0.54856,-0.32269 -0.15139,-0.1369 -0.27996,-0.32196 -0.27996,-0.55347 0,-0.19912 0.0708,-0.26248 0.14474,-0.37957 0.074,-0.1171 0.17236,-0.24921 0.29169,-0.39646 0.23868,-0.29449 0.56036,-0.64578 0.91562,-0.99264 0.76004,-0.74225 1.75366,-1.80912 2.66607,-2.79664 z"
         id="path42" />
      <path
         style="fill:#000000;fill-rule:evenodd;stroke:none"
         d="m -211.94063,-261.71523 c -0.50656,0.32074 -1.14185,0.74927 -2.0206,1.37738 -0.55451,0.39634 -1.15168,0.78693 -1.67316,1.10038 -0.52139,0.31347 -0.94647,0.54586 -1.23996,0.6438 -0.61224,0.20425 -1.45828,0.29132 -2.22391,0.28787 -0.38281,-0.002 -0.7434,-0.0271 -1.04541,-0.0794 -0.14404,-0.025 -0.27231,-0.0504 -0.39044,-0.0898 0.15469,0.10418 0.31448,0.2008 0.49249,0.2547 0.22562,0.0683 0.48734,0.22491 0.8321,0.44354 0.34472,0.2186 0.74264,0.49551 1.11697,0.78119 0.64578,0.49286 1.03394,0.72003 1.45682,0.85577 -0.30762,-0.12362 -0.60843,-0.28314 -0.89847,-0.51129 -0.21924,-0.17233 -0.38712,-0.3165 -0.51129,-0.46664 -0.12418,-0.15015 -0.22687,-0.34534 -0.17389,-0.56134 0.053,-0.21604 0.21863,-0.33805 0.39593,-0.43348 0.17728,-0.0954 0.39771,-0.17587 0.67997,-0.26611 1.18484,-0.37878 2.20886,-0.99356 4.39254,-2.65872 0.41172,-0.3139 0.54486,-0.45441 0.81034,-0.6778 z"
         id="path43" />
      <path
         style="fill:#000000;fill-rule:evenodd;stroke:none"
         d="m -228.09911,-266.97957 c 0.0659,0.0604 0.0972,0.1077 0.17441,0.17139 0.501,0.41351 1.22921,0.88729 2.08783,1.3385 0.59137,0.31076 1.0426,0.58621 1.37167,0.84704 0.32907,0.26081 0.55136,0.50602 0.6272,0.80814 0.0122,0.0486 0.14059,0.2749 0.3385,0.49469 0.19787,0.21979 0.45984,0.45725 0.72485,0.64624 0.47824,0.34103 0.77783,0.57053 0.96353,0.89984 0.1857,0.32932 0.21579,0.69321 0.23511,1.23697 0.0214,0.60217 0.20718,1.12735 0.49796,1.53656 -0.0398,-0.11145 -0.0655,-0.2327 -0.0942,-0.37033 -0.0588,-0.28223 -0.0936,-0.61447 -0.0933,-0.94693 v -7.3e-4 l 10e-4,-1.1322 c 2.5e-4,-0.13938 0.0991,-0.2591 0.2359,-0.28574 l 2.27231,-0.44132 c 1.50436,-0.29211 3.43323,-0.90985 5.19415,-1.61465 -0.019,-0.0485 -0.0306,-0.10175 -0.0337,-0.1589 -0.80994,0.31811 -1.65262,0.61431 -2.46716,0.86932 -1.62338,0.50824 -3.11707,0.85663 -4.06409,0.87973 -1.0488,0.0256 -1.63696,-0.14548 -2.52566,-0.73358 -0.32721,-0.21643 -0.57386,-0.37101 -0.74582,-0.55918 -0.086,-0.0941 -0.1763,-0.21936 -0.16355,-0.39782 0.0128,-0.17847 0.14047,-0.3075 0.25849,-0.38068 0.23593,-0.1463 0.55453,-0.22214 1.07126,-0.32977 0.51675,-0.10764 1.22048,-0.22928 2.15423,-0.38993 0.27176,-0.0467 0.46066,-0.0947 0.71045,-0.1434 -0.46353,0.008 -0.85364,0.006 -1.41357,0.0313 -1.7359,0.0789 -2.64536,0.11688 -3.31745,0.0541 -0.67203,-0.0627 -1.09311,-0.23791 -1.74853,-0.54092 -0.76291,-0.35266 -1.63605,-0.85681 -2.03806,-1.20325 z"
         id="path44" />
      <path
         style="fill:#000000;fill-rule:evenodd;stroke:none"
         d="m -231.05276,-272.76393 c 0.0603,0.0644 0.10166,0.12329 0.16434,0.18667 0.27814,0.28128 0.57279,0.54718 0.81955,0.73575 0.12338,0.0943 0.23593,0.16931 0.32053,0.21552 0.0846,0.0462 0.14963,0.0536 0.11645,0.0536 0.0723,0 0.17935,0.0305 0.24954,0.10611 0.0702,0.0756 0.0884,0.16314 0.0912,0.22366 0.005,0.12106 -0.0262,0.19086 -0.0607,0.27048 -0.069,0.15915 -0.18222,0.33331 -0.33493,0.52734 -0.33182,0.42181 -0.4281,0.63278 -0.41171,0.77191 0.0164,0.13919 0.18155,0.37998 0.61496,0.79511 0.21704,0.20794 0.41247,0.42895 0.56,0.62802 0.0737,0.0996 0.13565,0.1932 0.18365,0.28354 0.048,0.0903 0.0925,0.16501 0.0925,0.30664 0,0.005 0.04,0.0672 0.0479,0.0898 0.005,-0.0793 0.0427,-0.15289 0.10355,-0.20395 0.0609,-0.0511 0.13992,-0.0751 0.2189,-0.0665 l 1.36948,0.18857 c 2.1073,0.29041 4.78235,0.12491 6.94403,-0.43185 0.98343,-0.25324 2.71484,-0.92148 4.21838,-1.58634 0.35517,-0.15704 0.61401,-0.2944 0.9325,-0.44571 -3.55777,1.60791 -6.50956,2.40345 -9.05445,2.4054 -1.24459,10e-4 -2.45892,-0.13962 -3.4606,-0.37903 -1.00177,-0.23944 -1.78979,-0.55041 -2.21597,-1.02148 -0.0896,-0.0989 -0.16284,-0.18347 -0.22287,-0.27863 -0.06,-0.0951 -0.10944,-0.21487 -0.10477,-0.34775 0.009,-0.26574 0.17465,-0.41656 0.36734,-0.60922 0.21695,-0.21698 0.52564,-0.35565 1.01441,-0.39511 0.48874,-0.0396 1.1997,-0.0143 2.39312,0.0514 1.41361,0.0778 2.24253,0.0486 3.01789,-0.0492 l -1.76731,-0.083 c -1.7236,-0.0813 -3.10141,-0.26437 -3.79934,-0.55997 -0.57199,-0.24231 -1.30042,-0.64847 -1.89954,-1.02939 -0.19891,-0.12643 -0.34869,-0.2377 -0.50803,-0.35235 z"
         id="path45" />
      <path
         style="fill:#000000;fill-rule:evenodd;stroke:none"
         d="m -216.36227,-272.95793 c -0.58462,0.186 -1.2958,0.43588 -2.58551,0.97467 l -1.00488,0.41958 c 0.70761,-0.23755 1.40399,-0.4375 2.05982,-0.70474 0.57934,-0.23605 1.10138,-0.46878 1.49737,-0.6691 0.0188,-0.01 0.0149,-0.0109 0.0332,-0.0204 z"
         id="path46" />
      <path
         style="fill:#000000;fill-rule:evenodd;stroke:none"
         d="m -141.49837,-276.96272 c -0.19776,0 -0.49671,0.15643 -0.70964,0.39074 -0.21294,0.23444 -0.31603,0.52542 -0.28734,0.67646 0.0194,0.10199 0.0149,0.10504 0.13959,0.15918 0.12467,0.0541 0.38952,0.10412 0.80677,0.1314 0.29673,0.0194 0.58757,0.0173 0.8057,0 0.10905,-0.009 0.20077,-0.0212 0.2585,-0.034 0.012,-0.003 0.0143,-0.006 0.0231,-0.0101 0.064,-0.0733 0.0972,-0.15162 0.0882,-0.27402 -0.01,-0.1337 -0.0718,-0.30399 -0.17933,-0.46393 -0.21508,-0.31992 -0.59915,-0.57577 -0.94555,-0.57577 z m 0.0558,0.471 v 2.8e-4 c 0.008,0 0.0167,0.001 0.025,0.001 0.0232,10e-4 0.0463,0.004 0.0694,0.006 1.6e-4,-3e-5 2.8e-4,0 5.5e-4,0 0.002,-9e-5 0.004,-10e-4 0.005,-10e-4 0.004,-1e-4 0.006,0.003 0.009,0.003 0.009,10e-4 0.0176,0.003 0.0264,0.004 0.051,0.0109 0.0992,0.0276 0.14067,0.0604 0.0442,0.0355 0.0747,0.0747 0.0691,0.13498 -0.005,0.0429 -0.0134,0.0858 -0.0354,0.12381 -0.005,0.008 -0.01,0.0164 -0.0161,0.0236 -0.0298,0.0359 -0.0731,0.0535 -0.117,0.065 -0.0531,0.0124 -0.10613,0.0151 -0.16055,0.012 -0.0493,-10e-4 -0.0986,-10e-4 -0.14774,-0.005 -0.048,-0.003 -0.0961,-0.008 -0.1434,-0.0164 l 5.5e-4,-2.4e-4 c -0.0764,-0.0141 -0.0893,-0.07 -0.0544,-0.0982 -0.0377,-0.009 -0.0763,-0.0239 -0.0863,-0.0669 -0.003,-0.0122 0.002,-0.0252 0.003,-0.0378 0.005,-0.009 0.0101,-0.0181 0.0163,-0.0264 0.0161,-0.0214 0.05,-0.0396 0.0721,-0.0544 0.0337,-0.0186 0.0676,-0.0369 0.10093,-0.0561 0.0578,-0.0292 0.11832,-0.0547 0.18204,-0.0675 0.0134,-10e-4 0.0268,-0.004 0.0403,-0.004 z"
         id="path47" />
      <path
         style="fill:#000000;fill-rule:evenodd;stroke:none"
         d="m -138.4413,-277.31535 c 0.0204,0.0144 0.0406,0.0293 0.0618,0.0427 0.0309,0.0211 0.0679,0.0339 0.0914,0.0642 0.004,0.007 0.009,0.0141 0.0125,0.0218 0.0174,0.0417 0.008,0.0876 -0.0114,0.12652 -0.005,0.007 -0.0105,0.0155 -0.0166,0.0226 -0.0291,0.034 -0.0688,0.0508 -0.10994,0.0653 -0.0361,0.014 -0.0692,0.0346 -0.10367,0.052 -0.007,0.005 -0.01,0.006 -0.0114,0.007 -0.001,7.3e-4 -0.005,0.004 -0.0158,0.0109 -0.008,0.006 -0.007,-0.004 -0.0101,0.008 -0.002,0.0104 -0.004,4e-4 -0.004,0.002 -10e-4,0.007 0.009,0.0132 0.0111,0.0188 l 8.2e-4,7.4e-4 c 0.0203,0.0469 0.0193,0.0843 0.005,0.10339 0.0429,0.18845 0.075,0.40167 0.10339,0.64459 0.0504,0.43085 0.0803,0.93006 0.0895,1.41358 0.009,0.48355 -0.002,0.94946 -0.0384,1.3197 -0.0179,0.18512 -0.0411,0.3453 -0.0759,0.48163 -0.0264,0.10361 -0.0344,0.203 -0.12244,0.29822 1.9e-4,0.0115 -0.001,0.0245 -0.006,0.0389 -0.009,0.0322 -0.0202,0.0633 -0.0359,0.0931 -0.0111,0.019 -0.0181,0.0394 -0.0218,0.061 -0.003,0.0308 -0.006,0.0611 -0.0147,0.0909 -0.003,0.0131 -0.0143,0.0399 -0.01,0.0525 0.007,0.0254 0.005,0.0525 0.012,0.0776 0.008,0.0133 0.0103,0.0289 0.0196,0.0414 0.0416,0.0555 0.0187,0.10235 -0.019,0.10882 0.0247,0.0591 0.0462,0.0996 0.0615,0.11295 0.0229,0.0199 0.0756,0.0516 0.25904,0.0587 0.3668,0.0143 1.14802,-0.10003 2.59857,-0.34311 1.21731,-0.20397 2.03003,-0.38049 2.53625,-0.55972 0.50626,-0.1792 0.66754,-0.33548 0.72707,-0.4906 0.0296,-0.0772 0.0316,-0.11355 -0.0109,-0.20544 -0.0425,-0.0919 -0.15224,-0.23233 -0.35727,-0.40653 -0.4101,-0.34839 -1.18173,-0.82461 -2.4032,-1.49383 -0.58691,-0.32141 -1.17827,-0.66883 -1.66174,-0.97086 -0.48346,-0.30203 -0.84238,-0.53976 -1.03452,-0.7197 -0.16604,-0.15551 -0.34987,-0.22424 -0.49632,-0.25006 z"
         id="path48" />
      <path
         style="fill:#000000;fill-rule:evenodd;stroke:none"
         d="m -235.85103,-281.38356 c 0.36447,0.44873 0.7333,0.92255 1.09359,1.27044 l 0.99344,0.95917 c 0.10196,0.0984 0.11838,0.25595 0.0389,0.37332 l -0.59674,0.8797 c -0.15878,0.23401 -0.3042,0.47388 -0.40649,0.66394 -0.0512,0.095 -0.0917,0.17777 -0.11646,0.23673 -0.0122,0.029 -0.0184,0.0576 -0.0215,0.071 0.008,0.18583 0.1098,0.4159 0.36133,0.68488 0.26226,0.28043 0.67541,0.58923 1.22992,0.90066 0.45748,0.25696 0.78659,0.47745 1.01928,0.70911 0.2327,0.23163 0.37238,0.50067 0.3725,0.78201 0,-0.0301 0.009,0.0362 0.0544,0.12217 0.0273,0.0512 0.0811,0.12591 0.12653,0.1932 0.0123,-0.0593 0.0309,-0.11938 0.0558,-0.14828 0.0324,-0.0378 0.0589,-0.0539 0.0794,-0.0659 0.041,-0.0239 0.064,-0.03 0.0854,-0.0362 0.0428,-0.0125 0.0764,-0.018 0.11783,-0.024 0.0829,-0.012 0.18845,-0.0216 0.32324,-0.031 0.26963,-0.0188 0.65112,-0.0353 1.12134,-0.0492 0.94046,-0.0279 2.23367,-0.0449 3.65625,-0.0449 2.51291,0 3.81479,-0.006 4.70734,-0.0933 0.89254,-0.0874 1.384,-0.25049 2.35095,-0.59101 0.41992,-0.14789 0.60937,-0.23913 0.91318,-0.35946 -0.38581,0.0787 -0.69953,0.13119 -1.24295,0.26748 -1.26536,0.31726 -3.32459,0.5636 -5.40964,0.65415 -3.77997,0.16409 -5.61283,-0.14728 -8.10593,-1.38391 -0.7987,-0.39621 -1.30688,-0.72758 -1.47586,-1.22037 -0.0846,-0.24643 -0.0412,-0.52298 0.0925,-0.74967 0.1337,-0.22674 0.34241,-0.42465 0.61658,-0.62936 l 0.64734,-0.48242 c 0.077,-0.0573 0.17743,-0.073 0.26828,-0.0419 l 2.60946,0.89111 c 1.63111,0.55737 3.52835,0.99475 4.90491,1.19589 0.33807,0.0494 0.50159,0.0371 0.76379,0.0563 -0.52343,-0.13519 -1.18887,-0.29688 -1.92431,-0.46204 -4.82965,-1.08478 -7.04291,-2.14969 -9.30371,-4.49838 z"
         id="path49" />
      <path
         style="fill:#000000;fill-rule:evenodd;stroke:none"
         d="m -236.08855,-291.52071 c 0.33075,0.11753 0.65509,0.21115 0.979,0.30585 -0.31808,-0.085 -0.66452,-0.20636 -0.979,-0.30585 z"
         id="path50" />
      <path
         style="fill:#000000;fill-rule:evenodd;stroke:none"
         d="m -239.66561,-292.97701 c 0.0243,0.0562 0.0331,0.0897 0.0656,0.15619 0.16358,0.33454 0.42218,0.78388 0.72135,1.25522 0.59826,0.94272 1.37332,1.99014 1.8454,2.43994 0.49893,0.4755 1.3638,1.11261 1.83966,1.36295 l 0.95126,0.49985 c 0.11423,0.06 0.17548,0.18786 0.1506,0.31445 -0.0249,0.12659 -0.12994,0.2218 -0.25836,0.2341 l -1.6979,0.16626 c -0.71271,0.0698 -1.24399,0.12021 -1.59723,0.17795 -0.17661,0.0289 -0.30854,0.0602 -0.38639,0.089 -0.0312,0.0115 -0.0158,0.003 -0.0275,0.0101 0.0196,0.0395 0.0514,0.0968 0.12381,0.18612 0.1705,0.21039 0.48001,0.51975 0.89193,0.93604 h -7.3e-4 l 1.45273,1.46716 c 0.0828,0.0836 0.10721,0.20868 0.062,0.31726 -0.0452,0.10858 -0.15118,0.17939 -0.2688,0.1796 h -0.8016 c -0.19123,0 -0.36371,0.0291 -0.46747,0.0628 0.0195,0.0433 0.0419,0.13047 0.14774,0.31266 0.108,0.18591 0.27838,0.42834 0.45141,0.67129 -0.0463,-0.0774 -0.11111,-0.15457 -0.13742,-0.23511 -0.0256,-0.0782 -0.0428,-0.17224 -0.0131,-0.28137 0.03,-0.1091 0.12237,-0.20996 0.21249,-0.25467 0.18027,-0.0894 0.33161,-0.0659 0.52326,-0.0354 0.76709,0.12186 2.26172,0.70841 4.90762,1.81275 2.50375,1.04492 4.42212,1.45971 8.05777,1.60895 -0.003,-0.0402 -10e-4,-0.0796 0.006,-0.11783 -2.25351,-0.15232 -4.31629,-0.40155 -5.47876,-0.70694 -0.86026,-0.22596 -2.30985,-0.78961 -3.2908,-1.27451 -0.96631,-0.47778 -2.44617,-1.45865 -3.67365,-2.36212 -0.61365,-0.45178 -1.16055,-0.88184 -1.54663,-1.22391 -0.19303,-0.17105 -0.345,-0.31778 -0.45358,-0.44842 -0.0543,-0.0653 -0.0991,-0.12305 -0.13526,-0.2049 -0.0181,-0.0409 -0.0361,-0.0896 -0.037,-0.16134 -0.001,-0.0718 0.0304,-0.17542 0.0971,-0.24219 0.13675,-0.1366 0.20346,-0.11673 0.30365,-0.13904 0.10019,-0.0223 0.2182,-0.0394 0.35456,-0.0542 0.27276,-0.0295 0.61584,-0.0471 0.97522,-0.0471 2.57962,0 5.50741,0.54392 8.95596,1.65439 0.80051,0.25778 1.51282,0.46234 2.15585,0.64026 -0.901,-0.35791 -1.90942,-0.74481 -4.05267,-1.50256 -2.69632,-0.95328 -5.38626,-1.90909 -5.99005,-2.13028 -1.36991,-0.50177 -2.47635,-1.44705 -3.64154,-3.07038 -0.33323,-0.46426 -0.52149,-0.73178 -0.60978,-0.96569 -0.0221,-0.0585 -0.0448,-0.11652 -0.0378,-0.2128 0.007,-0.0963 0.10111,-0.24887 0.21198,-0.29279 0.11087,-0.0439 0.18365,-0.0263 0.2438,-0.0131 0.0601,0.0133 0.11243,0.0334 0.1687,0.0571 0.73395,0.31027 1.40104,0.518 2.08048,0.74066 -0.5061,-0.18689 -1.01682,-0.39447 -1.52649,-0.63074 -0.59375,-0.27511 -1.15091,-0.50848 -1.5632,-0.65982 -0.11118,-0.0408 -0.17694,-0.058 -0.26395,-0.086 z"
         id="path51" />
      <path
         style="fill:#000000;fill-rule:evenodd;stroke:none"
         d="m -239.30752,-299.85301 c -0.0163,0.003 -0.0332,0.003 -0.0457,0.0144 -0.0185,0.0165 -0.0479,0.0571 -0.0716,0.13223 -0.0473,0.15024 -0.0582,0.422 -0.008,0.73224 0.10056,0.62046 0.43237,1.3949 0.88324,1.86551 0.13782,0.14386 0.71076,0.61167 1.4563,1.17413 0.74554,0.5625 1.6842,1.2439 2.63312,1.90635 0.95334,0.66559 1.83471,1.2951 2.48864,1.77383 0.32697,0.23938 0.59684,0.44061 0.79209,0.59183 0.0977,0.0756 0.17615,0.13858 0.23648,0.18936 0.0301,0.0254 0.0558,0.0475 0.0789,0.0694 0.0231,0.0219 0.0397,0.0294 0.0789,0.0928 0.0387,0.0627 0.0645,0.16071 0.0476,0.25034 -0.0168,0.0897 -0.0653,0.15481 -0.1091,0.19674 -0.0876,0.0839 -0.16809,0.11005 -0.25549,0.1366 -0.17484,0.0531 -0.38727,0.0759 -0.63864,0.0759 -0.33783,0 -0.70529,-0.0393 -1.0737,-0.0816 0.19986,0.0341 0.35824,0.0868 0.56732,0.11863 2.20837,0.3367 3.07663,0.59973 4.20532,1.27832 0.74286,0.44668 1.65244,0.92773 2.60486,1.39672 0.0904,-0.0697 0.20709,-0.12432 0.34964,-0.15594 -0.39636,-0.18979 -0.74231,-0.36014 -0.94067,-0.47101 -1.06891,-0.59747 -4.1084,-2.69241 -6.97016,-4.73346 -1.43091,-1.02057 -2.81009,-2.02386 -3.85785,-2.81055 -0.52389,-0.39334 -0.96496,-0.73223 -1.29004,-0.99398 -0.16256,-0.13089 -0.29589,-0.24259 -0.39865,-0.33414 -0.10272,-0.0915 -0.16574,-0.14133 -0.23291,-0.24381 -0.24621,-0.37576 -0.40609,-0.61297 -0.42175,-0.91153 -0.004,-0.0746 0.006,-0.16439 0.0566,-0.2517 0.0509,-0.0873 0.1452,-0.15326 0.22937,-0.17933 0.16827,-0.0521 0.29575,-0.0159 0.44324,0.0302 0.59003,0.1846 1.57876,0.79352 3.2214,1.88678 4.02753,2.68051 10.58121,5.93506 15.11661,7.50753 2.45371,0.8508 3.9187,1.42133 5.06027,2.15015 1.14151,0.72882 1.93439,1.60822 3.02253,3.02088 0.35546,0.46142 0.56945,0.75961 0.67425,1.05331 0.10483,0.2937 0.0401,0.60019 -0.10419,0.83127 -0.2023,0.32382 -0.26498,0.58041 -0.19674,0.97876 0.0682,0.3984 0.29458,0.93716 0.71399,1.70007 0.37548,0.68301 0.58099,1.04715 0.64895,1.38608 0.034,0.16952 0.0192,0.34674 -0.0449,0.49197 -0.0641,0.14524 -0.15781,0.2526 -0.26041,0.36597 -0.56778,0.62741 -1.10473,2.09451 -1.10473,3.0889 0,0.69851 0.13598,1.03973 0.65985,1.63641 0.44711,0.50922 0.99734,1.45999 1.29275,2.20947 0.94605,2.40012 2.42173,4.0019 3.9991,4.46982 0.26397,0.0783 0.51264,0.22696 0.63372,0.4827 0.121,0.25576 0.13443,0.54852 0.13443,0.97958 0,0.42075 0.0337,0.6485 0.18528,0.9325 0.1516,0.28396 0.44635,0.63559 0.98012,1.19998 0.34966,0.36969 0.66611,0.74551 0.90067,1.06119 0.11726,0.1578 0.2144,0.30032 0.28651,0.42556 0.0721,0.12525 0.1366,0.20117 0.1366,0.38828 0,-0.0129 0.0668,0.18234 0.24162,0.39075 0.17485,0.2084 0.43096,0.45291 0.71916,0.68786 0.57642,0.46994 1.30333,0.90222 1.7284,1.01004 3.31295,0.84039 4.96832,1.21155 6.6967,0.60407 1.33349,-0.46872 2.79056,-1.57929 5.05917,-3.56452 -0.15843,0.0687 -0.31761,0.13538 -0.47726,0.20136 -0.30054,0.25235 -0.61566,0.52087 -0.88977,0.74499 -0.96602,0.78992 -1.70942,1.36582 -2.09845,1.58799 -0.77082,0.44024 -1.7657,0.79708 -2.66306,1.00705 -0.44873,0.10501 -0.87167,0.17279 -1.23616,0.19158 -0.3645,0.0188 -0.66698,0.008 -0.92325,-0.1358 -0.1114,-0.0624 -0.22691,-0.12405 -0.30394,-0.28296 -0.077,-0.15893 -0.0216,-0.36883 0.0659,-0.4898 0.17499,-0.24195 0.46613,-0.43628 0.99399,-0.79944 0.26834,-0.18463 0.89433,-0.67133 1.65165,-1.27478 -0.038,-0.0406 -0.0933,-0.0996 -0.14747,-0.15729 -1.39441,1.06872 -2.32826,1.67367 -3.01244,1.91397 -0.53489,0.18784 -1.17155,0.28122 -1.77818,0.2887 -0.60664,0.007 -1.17735,-0.0641 -1.60513,-0.25904 -0.18994,-0.0865 -0.36341,-0.23166 -0.55646,-0.41305 -0.19302,-0.1814 -0.39404,-0.39869 -0.58011,-0.62149 -0.18605,-0.22269 -0.35576,-0.45026 -0.48462,-0.65549 -0.12884,-0.20523 -0.23727,-0.34985 -0.23727,-0.59674 0,-0.16895 0.0944,-0.23077 0.14013,-0.26474 0.0458,-0.034 0.083,-0.0516 0.12299,-0.0688 0.08,-0.0345 0.17039,-0.062 0.27864,-0.0903 0.21648,-0.0567 0.49965,-0.11057 0.8125,-0.15347 0.24667,-0.0338 0.81775,-0.19797 1.47505,-0.43238 0.65732,-0.23437 1.41777,-0.53882 2.11588,-0.85382 0.66949,-0.30206 1.96002,-0.86246 3.03392,-1.33413 -0.0333,-0.0438 -0.0613,-0.0903 -0.0833,-0.13959 -2.39012,1.05044 -4.05676,1.74533 -5.18027,2.10742 -1.8336,0.59097 -2.57748,0.39178 -3.59309,-0.0324 -0.38466,-0.16071 -0.66789,-0.31717 -0.87317,-0.56299 -0.20531,-0.24579 -0.3024,-0.54928 -0.3755,-0.93899 -0.0508,-0.27097 -0.0712,-0.53684 -0.0615,-0.76517 0.005,-0.11417 0.0168,-0.21848 0.0411,-0.31616 0.0243,-0.0977 0.0488,-0.19565 0.15782,-0.29444 0.0656,-0.0593 0.10497,-0.0725 0.15782,-0.0977 0.0529,-0.0252 0.11341,-0.0505 0.18448,-0.0781 0.14217,-0.0552 0.32462,-0.11889 0.53958,-0.18829 0.42995,-0.13873 0.98757,-0.3009 1.57412,-0.45496 0.70915,-0.18625 2.25564,-0.66674 4.03988,-1.23559 -0.0431,-0.0567 -0.0768,-0.11826 -0.10095,-0.18341 -1.81328,0.55572 -3.25621,0.95532 -4.35934,1.1839 -1.93274,0.40051 -3.01381,0.33996 -3.85433,-0.0947 -0.52936,-0.27365 -1.17981,-0.89084 -1.78036,-1.56918 -0.60065,-0.67838 -1.12598,-1.38361 -1.31723,-1.93222 v -7.4e-4 l -0.24082,-0.69302 c -0.0315,-0.0909 -0.0161,-0.19159 0.0411,-0.26895 0.0572,-0.0774 0.14893,-0.12149 0.24512,-0.11798 l 3.16372,0.11425 c 1.98584,0.0717 4.46723,-0.0529 6.3299,-0.25604 0.41565,-0.0453 0.6322,-0.10183 0.97359,-0.15347 -0.6469,0.0212 -1.35061,0.0469 -2.17818,0.0963 -2.06348,0.1232 -4.45081,0.16309 -5.39441,0.0794 -1.11554,-0.0989 -2.17831,-0.39291 -3.04346,-0.81168 -0.86514,-0.41876 -1.54272,-0.95608 -1.85409,-1.60891 -0.18564,-0.3895 -0.30246,-0.67255 -0.29743,-1.00461 0.005,-0.33209 0.11981,-0.65286 0.31757,-1.17059 0.1702,-0.44568 0.31351,-0.79193 0.47671,-1.06418 0.16318,-0.27228 0.36252,-0.4852 0.63153,-0.57877 0.26902,-0.0936 0.55854,-0.0559 0.874,0.0457 0.31546,0.10156 0.6748,0.27121 1.12842,0.49902 2.68679,1.34946 6.30783,2.06802 11.13357,2.18472 0.79224,0.0191 1.42212,0.0277 2.00159,0.0299 -0.0346,-0.0605 -0.0567,-0.12421 -0.0659,-0.18857 -3.34161,0.0535 -7.15469,-0.28286 -9.57226,-0.95449 -3.41953,-0.95008 -5.26328,-2.24808 -6.42676,-4.57135 -0.24048,-0.48017 -0.39566,-0.84879 -0.42911,-1.17847 -0.0168,-0.16483 -0.002,-0.33615 0.0942,-0.48487 0.0957,-0.14862 0.26342,-0.23742 0.42746,-0.26748 0.3283,-0.0601 0.70144,0.0261 1.22473,0.19455 0.52328,0.16845 1.18664,0.43426 2.0198,0.79562 3.20807,1.39145 7.57053,2.66379 10.07648,2.95096 1.34654,0.1543 2.84618,0.23544 4.00044,0.24026 0.29232,10e-4 0.472,-0.0163 0.71128,-0.0247 -0.64559,-0.10206 -1.50597,-0.21277 -3.10495,-0.38611 -2.81047,-0.30454 -7.17694,-1.26737 -9.22071,-2.0416 -0.71275,-0.2699 -1.61815,-0.59064 -1.9828,-0.70392 -0.61472,-0.19095 -1.52567,-0.77636 -2.48129,-1.4873 -0.95557,-0.71106 -1.92047,-1.53964 -2.5213,-2.22226 -0.47525,-0.54001 -0.98319,-1.38263 -1.38745,-2.20648 -0.40418,-0.82383 -0.711,-1.57731 -0.711,-2.1153 0,-0.0571 0.0174,-0.14429 0.0786,-0.21417 0.0612,-0.0699 0.14725,-0.0995 0.20493,-0.10639 0.11532,-0.0137 0.16595,0.0146 0.21984,0.0362 0.10779,0.0432 0.20929,0.10647 0.33631,0.19321 0.25409,0.17346 0.58587,0.43917 0.95209,0.76541 2.95831,2.63516 4.9151,3.56079 10.24,4.8396 1.63947,0.39373 3.22513,0.53491 7.21697,0.63455 0.83395,0.0208 1.34806,0.0103 2.01763,0.0144 -5.53015,-0.28888 -9.5933,-0.83572 -12.73518,-1.88241 -3.29463,-1.09745 -5.62236,-2.74643 -7.66402,-5.15442 -0.65674,-0.77469 -1.06637,-1.36756 -1.23696,-1.89029 -0.0853,-0.26135 -0.10917,-0.51517 -0.0441,-0.74936 0.0651,-0.2341 0.21975,-0.43045 0.41958,-0.57657 0.5195,-0.37985 1.1084,-0.51129 1.75071,-0.29797 0.64233,0.21335 1.34896,0.71496 2.3186,1.54226 0.99463,0.8487 2.3851,1.85807 3.00778,2.19696 0.88248,0.48029 3.18196,1.17099 5.15579,1.62256 0.49984,0.11435 0.84482,0.15656 1.27915,0.23673 -0.33748,-0.0889 -0.61167,-0.17353 -0.98882,-0.26123 -4.72743,-1.0994 -7.7664,-2.88608 -10.16572,-6.00147 -0.52402,-0.68045 -1.10349,-1.59811 -1.55805,-2.41928 -0.22729,-0.41055 -0.4227,-0.79565 -0.56436,-1.11886 -0.0406,-0.0927 -0.0365,-0.14982 -0.0688,-0.22941 0.103,0.55762 0.28772,1.19977 0.62448,1.88868 0.20462,0.41858 0.37055,0.80569 0.47675,1.10339 0.0531,0.14883 0.0915,0.2731 0.11291,0.38336 0.0107,0.0552 0.0191,0.10492 0.0144,0.17444 -0.002,0.0348 -0.006,0.0758 -0.0327,0.13223 -0.0264,0.0565 -0.0919,0.13394 -0.18093,0.16571 -0.001,4.6e-4 -0.16453,0.0714 -0.35209,0.16056 -0.18759,0.0892 -0.42413,0.20468 -0.66204,0.32351 -0.24799,0.1239 -0.40784,0.20111 -0.48542,0.27048 -0.0776,0.0694 -0.1192,0.13119 -0.15265,0.35944 -0.0669,0.45648 0.001,1.47079 0.14313,3.56427 l 0.12161,1.80078 c 0.007,0.10113 -0.0398,0.19842 -0.12258,0.25696 -0.0827,0.0585 -0.18992,0.0699 -0.28312,0.0301 l -0.91534,-0.39264 c -0.48862,-0.20966 -1.91443,-0.77207 -3.14386,-1.23944 -4.4183,-1.67963 -5.05133,-1.95362 -8.64713,-3.74439 -2.02047,-1.00619 -5.42556,-2.94748 -7.60006,-4.33102 -1.07871,-0.68644 -2.09449,-1.31052 -2.85761,-1.7616 -0.38162,-0.22552 -0.70062,-0.40787 -0.93033,-0.53168 -0.11487,-0.0619 -0.20758,-0.10962 -0.27047,-0.13879 -0.0187,-0.009 -0.0274,-0.0114 -0.0397,-0.0166 z"
         id="path52" />
      <path
         style="fill:#000000;fill-rule:evenodd;stroke:none"
         d="m -198.39187,-306.03542 c 0.0461,0.0566 0.0734,0.0937 0.12027,0.151 1.13744,1.39045 2.4968,2.9697 3.34876,3.85025 0.26379,0.27265 0.34964,0.32035 0.53442,0.49033 -0.1579,-0.20129 -0.3009,-0.3891 -0.51645,-0.64596 -0.6465,-0.77051 -1.51297,-1.74653 -2.37927,-2.68891 -0.40282,-0.43817 -0.72664,-0.75683 -1.10773,-1.15671 z"
         id="path53" />
      <path
         style="fill:#000000;fill-rule:evenodd;stroke:none"
         d="m -196.60143,-310.73979 c 0.0126,0.0187 0.0268,0.0374 0.0395,0.0561 0.003,-0.003 0.006,-0.006 0.009,-0.009 -0.0159,-0.016 -0.0328,-0.031 -0.0484,-0.0473 z"
         id="path54" />
      <path
         style="fill:#000000;fill-rule:evenodd;stroke:none"
         d="m -213.90328,-313.01863 c 0.007,0.13092 0.001,0.19299 0.0114,0.34067 0.078,1.16778 0.38331,2.91287 0.65848,3.7958 0.14734,0.47266 0.26343,0.9289 0.33414,1.29276 0.0354,0.18194 0.0601,0.33999 0.0702,0.47317 0.005,0.0666 0.006,0.12671 0.002,0.18723 -0.004,0.0605 -0.003,0.12036 -0.0623,0.21576 -0.12817,0.20742 -0.29459,0.24624 -0.47946,0.29931 -0.18488,0.0531 -0.39813,0.0825 -0.61792,0.0825 -0.26666,0 -0.87821,0.2208 -1.17413,0.45358 -0.48157,0.37879 -0.64167,0.85969 -0.50068,1.58664 0.14087,0.72696 0.62818,1.67292 1.47806,2.78223 0.26398,0.34458 0.46414,0.6073 0.60922,0.81387 0.14509,0.20658 0.2385,0.34418 0.28708,0.51371 0.0243,0.0848 0.0381,0.19836 -0.0158,0.3132 -0.054,0.11487 -0.16227,0.18179 -0.24326,0.21033 -0.16205,0.0571 -0.29047,0.0465 -0.45932,0.0465 -0.0837,0 -0.0954,0.004 -0.14911,0.12869 -0.0189,0.0437 -0.0111,0.16617 -0.0237,0.23645 0.0765,-0.0983 0.18994,-0.17087 0.30151,-0.19373 0.2381,-0.0487 0.4549,0.0223 0.71616,0.1366 0.52255,0.22867 1.21762,0.69864 2.09436,1.40216 1.49481,1.19952 3.74582,2.60611 5.90381,3.75879 2.15806,1.15271 4.2516,2.05374 5.33374,2.25329 0.0332,0.006 0.033,-3.6e-4 0.0637,0.004 -0.13741,-0.0737 -0.26215,-0.1463 -0.46938,-0.22559 -2.83532,-1.08462 -7.44563,-3.6224 -9.37199,-5.17102 -2.28854,-1.83963 -4.60614,-4.49667 -5.39087,-6.2496 -0.22174,-0.49527 -0.35086,-0.78912 -0.37332,-1.08216 -0.0225,-0.29302 0.12424,-0.54336 0.30746,-0.74584 0.30927,-0.34183 0.82379,-0.53095 1.35126,-0.64759 0.52746,-0.11667 1.04443,-0.17721 1.44403,0.0522 0.12784,0.0734 0.19498,0.15234 0.32327,0.28271 0.1283,0.13034 0.28629,0.30066 0.46531,0.50147 0.358,0.40164 0.80041,0.92459 1.24484,1.47561 1.92065,2.38123 4.49365,4.81003 5.96394,5.6717 0.18047,0.10574 0.252,0.12405 0.38992,0.19372 -0.19375,-0.19876 -0.40194,-0.40771 -0.7314,-0.68786 -5.74356,-4.88407 -8.35946,-8.94773 -9.28793,-14.48072 z"
         id="path55" />
      <path
         style="fill:#000000;fill-rule:evenodd;stroke:none"
         d="m -194.1917,-341.03587 c -0.011,0.005 -0.0376,0.0207 -0.0721,0.10476 0.016,-0.0389 -0.007,0.028 -0.0169,0.11154 -0.0103,0.0836 -0.0204,0.20078 -0.0302,0.34421 -0.0197,0.28693 -0.0372,0.67935 -0.0506,1.14585 -0.0268,0.93298 -0.0386,2.16302 -0.0297,3.46029 0.038,5.30676 0.0128,5.14218 2.5145,14.64914 0.84559,3.21338 2.03131,7.00696 2.66659,8.55081 0.63957,1.55408 1.2224,2.97888 1.31018,3.20264 0.0343,0.0874 0.0781,0.13443 0.0506,0.29794 -0.0137,0.0818 -0.11728,0.23004 -0.23946,0.25824 -0.12218,0.0282 -0.18495,-0.007 -0.23021,-0.0288 -0.181,-0.0856 -0.27045,-0.19888 -0.44543,-0.38339 -0.34986,-0.36905 -0.86653,-0.98822 -1.47724,-1.7616 -1.22162,-1.54678 -2.80914,-3.69979 -4.06929,-5.58108 -3.59045,-5.36044 -5.21412,-8.23526 -7.94182,-14.06195 -0.58061,-1.24017 -1.15158,-2.41654 -1.60296,-3.31091 -0.22568,-0.44721 -0.42206,-0.82419 -0.57305,-1.1012 -0.15097,-0.27704 -0.28942,-0.48462 -0.27862,-0.47238 -0.14545,-0.16461 -0.26753,-0.2562 -0.33986,-0.28653 -0.0723,-0.0303 -0.0839,-0.0295 -0.15047,0.007 -0.13307,0.0737 -0.41661,0.44791 -0.74148,1.15753 -0.44121,0.96372 -0.59889,1.53718 -0.317,2.72074 0.28189,1.18359 1.04214,2.95669 2.47641,6.10269 1.19151,2.61359 1.93339,4.29468 2.33871,5.33539 0.20265,0.52032 0.32187,0.87555 0.3725,1.13629 0.0253,0.13037 0.0421,0.23486 0.01,0.36624 -0.0162,0.0657 -0.0519,0.1456 -0.12381,0.20761 -0.0719,0.062 -0.1702,0.089 -0.24434,0.089 -0.096,0 -0.12147,-0.0192 -0.16,-0.034 -0.0385,-0.0148 -0.0761,-0.032 -0.11783,-0.0528 -0.0834,-0.0416 -0.18263,-0.0972 -0.29604,-0.16437 -0.22683,-0.1344 -0.50976,-0.31619 -0.80081,-0.51645 -1.81274,-1.24743 -4.75174,-4.54559 -6.10351,-6.82132 -0.33866,-0.57006 -0.68122,-1.10025 -0.95697,-1.49002 -0.10862,-0.15353 -0.19486,-0.26346 -0.27646,-0.36545 -0.01,0.0584 -0.0179,0.0644 -0.0258,0.14341 -0.0457,0.45791 -0.0653,1.25763 -0.0653,2.49136 0,3.74875 0.44611,5.5723 1.82962,7.5835 l 0.8797,1.27914 c 0.0779,0.11401 0.0651,0.26703 -0.0306,0.36658 -0.0957,0.0996 -0.24804,0.11838 -0.36508,0.0451 l -1.00705,-0.63589 c -0.57239,-0.36133 -1.48498,-0.82907 -2.30197,-1.19943 -0.40857,-0.18518 -0.79501,-0.34672 -1.10175,-0.46012 -0.30673,-0.1134 -0.57467,-0.16925 -0.5744,-0.16925 -0.11221,0 -0.15484,0.0234 -0.14749,0.018 0.007,-0.005 0.004,-0.0296 10e-4,0.0484 -0.006,0.15597 0.10083,0.59411 0.35507,1.28839 0.31262,0.85361 0.56649,1.67563 0.72488,2.31287 0.0792,0.3186 0.13504,0.58975 0.16138,0.80596 0.0131,0.1081 0.0193,0.2016 0.0144,0.29142 -0.005,0.0898 0.006,0.18756 -0.1192,0.3132 -0.0783,0.0783 -0.1701,0.0958 -0.23074,0.0985 -0.0606,0.003 -0.10568,-0.007 -0.14774,-0.0174 -0.0842,-0.0216 -0.15881,-0.0555 -0.24218,-0.0985 -0.16672,-0.086 -0.35804,-0.21161 -0.55426,-0.36596 -0.31067,-0.24439 -0.55304,-0.40674 -0.69169,-0.46586 -0.0506,-0.0215 -0.0627,-0.02 -0.0759,-0.0217 -0.0135,0.0258 -0.0735,0.18576 -0.0852,0.49713 0,5.2e-4 3e-5,0.002 0,0.002 0.0964,-0.0936 0.24426,-0.10919 0.3581,-0.0378 l 0.70529,0.50229 c 1.1119,0.79172 2.36355,2.33109 3.3074,4.02359 1.92163,3.44589 5.37848,6.79297 10.02721,9.677 1.37776,0.85474 3.04974,1.81336 4.66165,2.71152 -0.0313,-0.0889 -0.0621,-0.17789 -0.092,-0.26721 -3.99148,-2.36447 -7.99363,-5.17331 -9.99511,-7.08554 -3.28006,-3.13385 -4.76319,-5.45767 -6.58405,-10.31238 -0.51315,-1.3681 -1.02344,-2.70877 -1.11697,-2.93924 -0.0459,-0.11304 -0.10837,-0.19446 -0.0656,-0.38937 0.0214,-0.0975 0.12513,-0.2208 0.22693,-0.2566 0.10181,-0.0358 0.17554,-0.0248 0.24244,-0.0125 0.2676,0.0492 0.56726,0.20703 1.15316,0.49985 0.76993,0.3848 1.88147,1.10977 2.53546,1.65384 0.60944,0.50708 1.67569,1.27991 2.33164,1.68921 0.73195,0.45679 1.96132,1.55298 2.82442,2.49869 0.24818,0.27197 0.4449,0.45202 0.66256,0.66638 -0.12086,-0.19028 -0.18956,-0.32153 -0.35101,-0.55646 -0.69519,-1.0116 -1.75279,-2.41479 -3.07149,-4.06192 -2.82867,-3.53333 -3.60382,-5.1857 -3.86084,-8.24551 -0.0538,-0.64032 -0.0977,-1.22992 -0.12463,-1.66608 -0.0135,-0.21805 -0.0222,-0.39728 -0.0267,-0.52814 -0.002,-0.0654 -0.003,-0.11807 -0.003,-0.16189 3.1e-4,-0.0219 -3.6e-4,-0.0412 0.003,-0.0645 0.001,-0.0117 0.003,-0.0241 0.007,-0.0441 0.004,-0.02 -0.004,-0.0421 0.0506,-0.11808 2.1e-4,-3e-4 0.0656,-0.0662 0.0659,-0.0664 2.8e-4,-1.9e-4 0.0857,-0.044 0.086,-0.0441 3.1e-4,-1.2e-4 0.0577,-0.0126 0.0819,-0.0131 0.0242,-5.2e-4 0.0447,0.002 0.062,0.005 0.0693,0.0132 0.0937,0.0337 0.11374,0.0471 0.04,0.0267 0.0527,0.0429 0.0686,0.0593 0.0318,0.0328 0.0593,0.0659 0.0928,0.10858 0.0671,0.0854 0.15371,0.2041 0.25821,0.3529 0.20898,0.29761 0.48773,0.7128 0.78854,1.17795 1.19391,1.84619 4.57713,5.3526 6.77181,7.00037 1.27725,0.95901 1.76367,1.56442 2.66795,3.32263 0.49226,0.95721 1.32837,2.39785 2.01247,3.48752 -0.0117,-0.17518 0.0944,-0.29752 0.24162,-0.30967 -1.24217,-1.91943 -2.19658,-3.76733 -2.91802,-5.66351 -0.49481,-1.30048 -2.12748,-5.10065 -3.61351,-8.40741 -1.41603,-3.15079 -2.18144,-4.92703 -2.51312,-6.15277 -0.33179,-1.22574 -0.19672,-1.94546 0.16707,-2.75339 l 0.33632,-0.74664 c 0.0487,-0.10843 0.15829,-0.17648 0.27707,-0.172 0.11877,0.004 0.22294,0.0806 0.26332,0.19242 l 0.31618,0.87097 v 2.7e-4 2.8e-4 2.7e-4 c 0.0657,0.18097 0.47032,1.06189 1.03508,2.23316 0.56466,1.17126 1.30125,2.66797 2.07205,4.20669 1.96966,3.93231 3.76027,7.04395 6.04774,10.51483 2.6472,4.01654 3.8451,5.6568 6.80335,9.27457 h 0.73495 0.50965 c 0.0504,-0.26889 0.0977,-0.53839 0.15184,-0.80676 0.0128,-0.0664 0.0258,-0.13278 0.0387,-0.19919 -2.19464,-4.19998 -3.42322,-7.84934 -5.16614,-15.08179 -1.60726,-6.66919 -1.90538,-8.73956 -1.80701,-12.53845 0.0347,-1.34094 0.0494,-2.01962 0.12216,-2.38144 0.0182,-0.0905 0.0237,-0.16443 0.11293,-0.27045 0.0445,-0.053 0.13714,-0.11663 0.24027,-0.12164 0.10313,-0.005 0.17871,0.0377 0.22421,0.0716 0.091,0.0679 0.12116,0.12665 0.1619,0.19321 0.0407,0.0665 0.0803,0.14081 0.12381,0.22583 0.0121,0.0237 0.0162,0.0295 0.0275,0.0514 0.0371,-0.27606 -0.0373,-0.65265 -0.24082,-1.00866 -0.23753,-0.41565 -0.61853,-0.74826 -0.79072,-0.797 -0.0571,-0.0162 -0.0752,-0.01 -0.0863,-0.004 z"
         id="path56" />
    </g>
  </g>
</svg>
