<?xml version="1.0" encoding="UTF-8" standalone="no"?>
<svg
   width="203.60898mm"
   height="189.92087mm"
   viewBox="-930.8042 -496.00003 203.609 189.92084"
   version="1.1"
   id="svg76"
   sodipodi:docname="nagy_lud.svg"
   inkscape:version="1.4.2 (f4327f4, 2025-05-13)"
   inkscape:export-filename="Egyszer vol h nem ludas.jpg"
   inkscape:export-xdpi="200"
   inkscape:export-ydpi="200"
   xmlns:inkscape="http://www.inkscape.org/namespaces/inkscape"
   xmlns:sodipodi="http://sodipodi.sourceforge.net/DTD/sodipodi-0.dtd"
   xmlns="http://www.w3.org/2000/svg"
   xmlns:svg="http://www.w3.org/2000/svg">
  <defs
     id="defs76">
    <inkscape:path-effect
       effect="bspline"
       id="path-effect276"
       is_visible="true"
       lpeversion="1.3"
       weight="33.333333"
       steps="2"
       helper_size="0"
       apply_no_weight="true"
       apply_with_weight="true"
       only_selected="false"
       uniform="false" />
    <inkscape:path-effect
       effect="bspline"
       id="path-effect276-9"
       is_visible="true"
       lpeversion="1.3"
       weight="33.333333"
       steps="2"
       helper_size="0"
       apply_no_weight="true"
       apply_with_weight="true"
       only_selected="false"
       uniform="false" />
    <inkscape:path-effect
       effect="bspline"
       id="path-effect276-94"
       is_visible="true"
       lpeversion="1.3"
       weight="33.333333"
       steps="2"
       helper_size="0"
       apply_no_weight="true"
       apply_with_weight="true"
       only_selected="false"
       uniform="false" />
    <inkscape:path-effect
       effect="bspline"
       id="path-effect276-3"
       is_visible="true"
       lpeversion="1.3"
       weight="33.333333"
       steps="2"
       helper_size="0"
       apply_no_weight="true"
       apply_with_weight="true"
       only_selected="false"
       uniform="false" />
    <inkscape:path-effect
       effect="bspline"
       id="path-effect276-2"
       is_visible="true"
       lpeversion="1.3"
       weight="33.333333"
       steps="2"
       helper_size="0"
       apply_no_weight="true"
       apply_with_weight="true"
       only_selected="false"
       uniform="false" />
    <inkscape:path-effect
       effect="bspline"
       id="path-effect276-9-7"
       is_visible="true"
       lpeversion="1.3"
       weight="33.333333"
       steps="2"
       helper_size="0"
       apply_no_weight="true"
       apply_with_weight="true"
       only_selected="false"
       uniform="false" />
    <inkscape:path-effect
       effect="bspline"
       id="path-effect276-1"
       is_visible="true"
       lpeversion="1.3"
       weight="33.333333"
       steps="2"
       helper_size="0"
       apply_no_weight="true"
       apply_with_weight="true"
       only_selected="false"
       uniform="false" />
    <inkscape:path-effect
       effect="bspline"
       id="path-effect276-9-7-0"
       is_visible="true"
       lpeversion="1.3"
       weight="33.333333"
       steps="2"
       helper_size="0"
       apply_no_weight="true"
       apply_with_weight="true"
       only_selected="false"
       uniform="false" />
    <inkscape:path-effect
       effect="bspline"
       id="path-effect276-9-5"
       is_visible="true"
       lpeversion="1.3"
       weight="33.333333"
       steps="2"
       helper_size="0"
       apply_no_weight="true"
       apply_with_weight="true"
       only_selected="false"
       uniform="false" />
    <inkscape:path-effect
       effect="bspline"
       id="path-effect276-1-3"
       is_visible="true"
       lpeversion="1.3"
       weight="33.333333"
       steps="2"
       helper_size="0"
       apply_no_weight="true"
       apply_with_weight="true"
       only_selected="false"
       uniform="false" />
  </defs>
  <sodipodi:namedview
     id="namedview76"
     pagecolor="#ffffff"
     bordercolor="#999999"
     borderopacity="1"
     inkscape:showpageshadow="2"
     inkscape:pageopacity="0"
     inkscape:pagecheckerboard="0"
     inkscape:deskcolor="#d1d1d1"
     inkscape:document-units="mm"
     inkscape:zoom="0.43413205"
     inkscape:cx="269.50325"
     inkscape:cy="222.2826"
     inkscape:window-width="1920"
     inkscape:window-height="991"
     inkscape:window-x="-9"
     inkscape:window-y="-9"
     inkscape:window-maximized="1"
     inkscape:current-layer="svg76" />
  <g
     id="g1"
     transform="translate(-49.93931,-226.9858)">
    <path
       style="fill:#e3d7c0;fill-opacity:0.6;stroke:none;stroke-width:0.05mm"
       d="m -794.25794,-269.01148 c 0.81802,0.38322 1.2421,1.27392 1.7156,2.00191 1.87381,3.34276 3.19227,6.9585 4.53398,10.53784 3.04784,8.36737 5.64022,16.8903 8.37038,25.36423 3.26982,10.28824 6.51566,20.5811 9.69975,30.89398 1.30251,3.8346 3.36921,7.38126 5.42156,10.82391 2.61893,4.44349 4.51198,9.25673 6.59823,13.96022 3.53631,8.09745 6.94155,16.25645 9.33059,24.77829 0.60586,1.99772 0.85245,4.13227 1.83282,5.9986 0.68067,1.33408 2.15744,1.97929 3.57546,2.16925 3.04939,0.44029 6.15159,0.54581 9.22572,0.34075 2.03165,-0.13879 3.94878,-0.88707 5.89368,-1.42933 7.50004,-2.24209 14.87219,-4.8919 22.37744,-7.11926 2.0939,-0.59154 4.31021,-1.23337 6.41681,-1.42171 2.62742,-0.22812 5.39441,0.0858 7.67767,1.49431 1.76807,1.0336 3.17583,2.5591 4.90163,3.65677 2.21918,1.59546 4.66833,2.81861 7.00136,4.22981 0.78569,0.54967 1.74366,1.01415 2.20509,1.89322 0.045,0.61679 -0.66487,0.91881 -1.10497,1.20481 -1.40219,0.73468 -3.01727,0.875 -4.54647,1.19059 -5.10773,0.84855 -10.27684,1.44667 -15.44648,1.78205 -3.60586,0.175 -7.33142,0.21278 -10.86181,1.1954 -4.8709,1.31287 -9.64922,3.08135 -13.99607,5.66901 -5.40087,3.1904 -10.36166,7.05296 -15.32888,10.86723 -8.34485,6.47713 -16.7764,12.99519 -26.26211,17.74014 -7.02858,3.523263 -14.51862,5.930383 -22.09375,8.046993 -3.84405,1.07478 -7.74418,1.96122 -11.69576,2.5359 -1.15117,1.66678 -2.59447,3.114 -4.23983,4.2934 -1.21836,0.89869 -2.4873,1.76738 -3.9207,2.27996 -1.48478,0.82544 -2.41592,2.25536 -3.66729,3.331 -0.72446,0.6234 -1.49445,1.3443 -2.47162,1.49342 -0.25635,-0.0263 -0.73818,-0.33246 -0.45058,-0.61853 0.35425,-0.50816 0.5752,-1.38229 -0.0866,-1.74457 -0.99713,-0.45254 -2.13675,-0.15982 -3.19154,-0.31323 -0.13571,-0.46892 0.22612,-0.78979 0.52345,-1.07988 0.23871,-0.12836 0.11623,-0.68738 0.40117,-0.57704 0.73408,0.19008 1.81293,-0.16382 1.78743,-1.05515 -0.0502,-0.73431 -0.91771,-1.04928 -1.53327,-0.77212 -0.4423,0.14784 -0.94705,0.3643 -1.13072,0.82709 -1.30646,-0.36029 -2.47941,0.57513 -3.40258,1.37591 -1.30051,1.13295 -2.56656,2.44222 -4.24123,2.99924 -0.44629,0.24197 -1.116,-0.2426 -0.75337,-0.71787 0.46736,-0.57559 0.46539,-1.5659 -0.27202,-1.91932 -0.72641,-0.47246 -1.74214,-0.0626 -2.39606,-0.65259 -0.13718,-0.48761 0.48628,-0.81059 0.83956,-1.01851 0.62415,-0.26744 1.41899,-0.59181 1.453,-1.38805 0.24826,-0.56445 0.0929,-0.72589 -0.47365,-0.47685 -3.24695,0.72478 -6.48778,1.50362 -9.62799,2.61374 -3.87471,1.27017 -7.80907,2.22707 -11.77434,3.16582 -1.14786,-0.50574 -2.2299,-1.22087 -3.11346,-2.11324 -1.00686,-1.15599 -0.74776,-3.14825 0.54641,-3.98553 2.5414,-1.9659 5.40204,-3.47748 8.28836,-4.86898 3.11323,-1.48429 6.46445,-2.44651 9.47853,-4.1398 1.90438,-1.11273 3.15319,-2.99081 4.53506,-4.651213 0.6773,-0.92876 1.50488,-1.82475 1.81178,-2.95709 0.16684,-0.62558 -0.39839,-1.07677 -0.95854,-1.16719 -1.10938,-0.33213 -2.33913,-0.45932 -3.22797,-1.28121 -0.53909,-0.57512 -1.08171,-1.21872 -1.88744,-1.41498 -2.01465,-0.60614 -4.25283,-0.12963 -6.18451,-1.0511 -1.14564,-0.64286 -2.09117,-1.5833 -3.2227,-2.2539 -1.47751,-1.06101 -3.35827,-1.58449 -4.53129,-3.03722 -0.9695,-1.24564 -0.59456,-2.88474 -0.75235,-4.33627 -0.0988,-1.21634 -1.23885,-1.88193 -2.16451,-2.46465 -0.93263,-0.62398 -2.03068,-1.41443 -2.34884,-2.59064 -0.69651,-1.27745 -2.10991,-1.90046 -3.32493,-2.57882 -1.74353,-0.92406 -3.55722,-1.84328 -4.94864,-3.27257 -0.34084,-0.34673 -0.28987,-0.8782 -0.621,-1.24199 -0.72001,-1.18011 -1.76523,-2.12695 -2.46196,-3.3183 -0.38405,-0.73346 0.42434,-1.34071 0.80632,-1.87393 0.41983,-0.41037 0.83603,-1.13672 0.32846,-1.64563 -0.73336,-0.57318 -1.60009,-0.97194 -2.28167,-1.62228 -0.95621,-0.85739 -1.95922,-1.75254 -2.52831,-2.92391 0.0917,-1.06692 -0.88293,-1.76656 -1.65553,-2.31239 -1.0721,-0.78861 -2.39931,-1.27855 -3.25514,-2.32951 -0.41402,-0.74457 -0.44225,-1.7054 -0.16172,-2.50232 0.47164,-0.95524 1.35982,-1.61031 2.03611,-2.41391 -2.05196,-2.19946 -4.32798,-4.22988 -6.00827,-6.74441 -0.24613,-0.46288 -0.67191,-0.98597 -0.53557,-1.53327 0.68486,-0.34652 1.64,0.0592 2.23944,-0.51933 0.43121,-0.50696 -0.23465,-1.00531 -0.5517,-1.36709 -1.22807,-1.34804 -2.69078,-2.47377 -3.83513,-3.89627 -0.27432,-0.33947 0.45815,-0.2754 0.66104,-0.34622 2.56881,-0.21636 5.15302,-0.11793 7.72843,-0.18206 0.24013,-0.056 1.30832,0.10403 0.91693,-0.11668 -2.17899,-1.31065 -4.52861,-2.3844 -6.44267,-4.08992 -2.21919,-1.82262 -3.75913,-4.3076 -5.12776,-6.79546 -0.23084,-0.44225 -0.45449,-0.89075 -0.62662,-1.35948 2.47735,0.87968 4.76904,2.20804 7.26825,3.03589 2.41418,0.92933 5.01413,1.27268 7.58897,1.29186 0.64086,-0.0486 1.56958,0.0389 1.84651,-0.69106 0.0697,-0.68454 -0.70347,-0.96378 -1.12271,-1.358 -3.90246,-2.95151 -8.02871,-5.59958 -11.89808,-8.59685 -1.17704,-1.00001 -2.60215,-2.00657 -2.9778,-3.59727 -0.16979,-0.97766 -0.16356,-1.9977 0.0547,-2.96752 4.2602,2.20486 8.14777,4.99724 12.30257,7.38658 6.29428,3.6585 12.75792,7.05558 19.48956,9.84036 4.26094,1.66114 8.50495,3.37065 12.7616,5.0426 0.71062,0.21084 1.4601,0.68901 2.21344,0.46145 0.59186,-0.27333 0.31174,-0.99204 0.16136,-1.45616 -0.44037,-2.43776 -0.47116,-4.92712 -0.82608,-7.3775 -0.0503,-0.70751 -0.29382,-1.50932 0.10143,-2.19318 0.78549,-0.77498 1.95076,-0.93508 2.94882,-1.31347 0.59441,-0.19153 1.18889,-0.38279 1.78285,-0.57563 -1.20558,-1.69921 -2.44272,-3.42664 -3.05937,-5.44322 -0.35312,-1.17752 -0.73357,-2.47409 -0.35887,-3.69038 0.23935,-0.59049 1.09145,-0.34814 1.4261,-0.86968 0.47754,-0.62756 -0.1575,-1.34163 -0.54669,-1.83276 -1.3705,-1.55649 -2.42395,-3.3788 -3.26448,-5.20154 -0.33873,-0.83404 -0.86124,-1.79429 -0.57326,-2.76919 0.41487,-1.68714 2.23262,-2.60213 3.86922,-2.56012 0.64019,0.0615 1.52756,-0.11916 1.60338,-0.88968 0.0848,-1.1584 -0.38152,-2.27273 -0.62653,-3.38994 -0.82581,-3.12808 -1.42503,-6.39294 -1.52779,-9.65573 0.0262,-0.50671 -0.0428,-1.08364 0.22119,-1.53189 0.95517,0.25469 1.63022,1.07356 2.51035,1.50133 0.39001,0.30997 1.07983,0.40109 1.28021,-0.16591 0.22316,-1.06553 -0.14299,-2.15044 -0.36122,-3.19072 -0.32159,-1.42775 -0.92149,-2.76335 -1.45467,-4.11818 -0.20866,-0.69754 -0.50279,-1.46537 -0.28616,-2.18879 1.34038,0.30843 2.60312,0.96538 3.81783,1.5036 2.02498,0.91585 3.94085,2.04561 5.81007,3.24171 0.50295,0.25192 1.00589,0.50383 1.50884,0.75574 -1.23111,-2.43115 -3.12673,-4.46036 -4.27399,-6.94085 -1.49855,-3.09462 -1.44914,-6.62189 -1.5121,-9.98101 -4e-4,-2.06363 -0.0218,-4.13461 0.18887,-6.18969 1.67412,2.11585 2.89481,4.53956 4.56038,6.68941 2.55272,3.38674 5.41022,6.59586 8.80068,9.16663 0.88482,0.58716 1.69476,1.37991 2.7409,1.66104 0.68323,0.16339 1.10838,-0.60182 0.93425,-1.18979 -0.38034,-1.76871 -1.2209,-3.39585 -1.91457,-5.05579 -2.18302,-4.95449 -4.60911,-9.80277 -6.67945,-14.80729 -0.79177,-1.87323 -1.29697,-3.87984 -1.27283,-5.92337 -0.0403,-1.87237 0.31825,-3.99455 1.89052,-5.21055 0.17279,-0.18181 0.43321,-0.32352 0.62239,-0.0632 0.64644,0.74715 1.03047,1.69898 1.53166,2.55065 3.51373,6.56021 6.54857,13.35178 10.15384,19.86922 3.65944,6.71143 7.72752,13.20254 12.1927,19.40705 2.09737,2.77489 4.2649,5.51261 6.70739,7.99425 0.38071,0.34486 0.87702,0.91946 1.43788,0.6067 0.52892,-0.48635 -0.0272,-1.16724 -0.18192,-1.70185 -1.33332,-3.36261 -2.78651,-6.68349 -3.85696,-10.14437 -1.95885,-5.87903 -3.39058,-11.96271 -4.98713,-17.96586 -0.88525,-3.30438 -1.74621,-6.62058 -2.27394,-10.00448 -0.54103,-3.06231 -0.84916,-6.15046 -0.89382,-9.23794 -0.0405,-3.29201 -0.0424,-6.60414 0.41308,-9.87065 0.0991,-0.4271 0.0928,-0.99525 0.50517,-1.24978 z"
       id="path1" />
    <path
       style="fill:#ffffff;fill-opacity:1;stroke:#000000;stroke-width:0.05mm;stroke-opacity:1"
       d="m -802.684,-90.136707 c -2.92593,0.27449 -5.85911,0.56382 -8.75084,1.08292 -0.46052,0.13499 -0.92105,0.26999 -1.38157,0.405 0.43619,0.17251 0.93695,0.32869 1.33404,0.51109 -0.47038,0.41858 -0.71341,1.24043 -0.12366,1.67476 0.92591,0.72446 2.0626,1.22696 3.23415,1.36015 1.29524,-0.0998 2.40703,-0.89465 3.4643,-1.58479 1.19519,-0.82968 2.31718,-1.81644 3.02395,-3.10823 0.53554,-0.54735 -0.002,-0.44177 -0.48102,-0.37192 -0.10644,0.0103 -0.21289,0.0207 -0.31933,0.031 z"
       id="path2" />
    <path
       style="fill:#ffffff;fill-opacity:1;stroke:#000000;stroke-width:0.05mm;stroke-opacity:1"
       d="m -815.4007,-88.433087 c -2.5199,0.42996 -5.02516,0.93503 -7.53578,1.41649 1.15328,0.5088 2.21733,1.33035 3.49516,1.48928 0.83372,0.10869 1.38577,-0.69519 2.18449,-0.73228 1.32982,-0.50391 2.48416,-1.3633 3.56111,-2.27516 -0.56832,0.0339 -1.13665,0.0678 -1.70498,0.10167 z"
       id="path3" />
    <path
       style="fill:#000000;fill-rule:evenodd;stroke:none"
       d="m -811.75863,-79.676647 c 0.57587,-0.34333 1.72181,-1.32378 2.54651,-2.17876 0.98163,-1.01767 1.80585,-1.63895 2.3866,-1.79897 1.31366,-0.36189 4.74426,-2.68232 6.09479,-4.12238 1.10736,-1.18082 1.84765,-2.1494 1.85809,-2.43104 0.009,-0.23992 -1.00409,-0.15112 -1.83643,0.16111 -0.4646,0.17422 -1.15844,0.36853 -1.54193,0.4317 -0.40741,0.0672 -0.85773,0.382 -1.08343,0.75746 -0.77814,1.29456 -4.22132,3.51042 -5.39472,3.47172 -0.95367,-0.0316 -2.96899,-0.97097 -2.95398,-1.3771 0.007,-0.18594 0.18842,-0.46648 0.40351,-0.62341 0.71679,-0.523 0.42059,-0.70476 -1.23755,-0.75945 -1.5058,-0.0496 -1.76984,0.0221 -3.13898,0.85436 -0.82214,0.49972 -1.66595,0.90649 -1.87512,0.90394 -0.20923,-0.003 -0.60748,0.14618 -0.88513,0.33048 -0.74768,0.49629 -1.24952,0.39988 -3.21534,-0.61769 -2.84515,-1.47283 -4.458,-1.22054 -4.16265,0.65115 0.11017,0.69823 0.0383,0.80131 -0.79786,1.14276 -1.91955,0.78392 -1.80267,2.2001 0.18702,2.26572 1.26397,0.0417 1.66357,0.4987 1.11181,1.27166 -0.44323,0.62093 0.002,1.40007 0.81476,1.4269 0.82251,0.0272 2.3761,-0.84248 3.9325,-2.20123 1.6925,-1.47753 2.42028,-1.89771 3.24328,-1.87241 0.77887,0.024 0.9115,0.50617 0.26819,0.97551 -0.22491,0.16414 -0.38055,0.5704 -0.35095,0.91605 0.0519,0.60559 0.0962,0.62124 1.76538,0.62513 1.81824,0.005 2.02887,0.17925 1.41553,1.17623 -0.19904,0.32355 -0.16919,0.53924 0.11444,0.82641 0.54999,0.55701 1.1394,0.50496 2.33172,-0.20588 z m -4.58496,-4.5307 c 0.0104,-0.28026 1.06684,-0.67485 1.3504,-0.50434 0.49598,0.29828 0.10877,0.79972 -0.59948,0.77639 -0.41803,-0.0132 -0.75592,-0.13617 -0.75092,-0.27205 z"
       id="path58" />
    <path
       style="fill:#000000;fill-rule:evenodd;stroke:none"
       d="m -832.50967,-95.191377 c -0.8778,0.41458 -2.98693,1.26883 -4.76354,1.93579 -3.71375,1.39429 -7.31592,3.2304 -9.96473,4.95992 -1.32428,0.86474 -2.41174,1.70544 -3.14453,2.43034 -0.73266,0.72489 -1.04852,1.36008 -1.04852,1.57044 0,-0.0647 0.11359,0.34803 0.38086,0.75293 0.26727,0.40489 0.65009,0.87692 1.06451,1.29138 0.82019,0.82022 1.30286,1.17316 2.03192,1.30794 0.72889,0.13476 1.80768,0.0218 3.66852,-0.3173 h 0.003 c 2.50916,-0.45754 6.32208,-1.53079 9.55805,-2.6076 1.61822,-0.53848 3.09515,-1.07901 4.19305,-1.53892 0.54895,-0.22996 1.00458,-0.44082 1.32446,-0.61391 0.0593,-0.0322 0.0871,-0.0579 0.13697,-0.0904 -0.0697,-0.0497 -0.10694,-0.1266 -0.10285,-0.21137 -0.0341,0.009 -0.0479,0.009 -0.0863,0.0201 -0.42426,0.12167 -0.82099,0.23075 -1.12244,0.31161 -0.1507,0.0404 -0.27667,0.0738 -0.3736,0.0977 -0.0485,0.012 -0.0897,0.0221 -0.12658,0.03 -0.037,0.008 -0.006,0.0207 -0.16901,0.0207 -0.12945,0 -0.2901,-0.0628 -0.38446,-0.14986 -0.0944,-0.087 -0.13232,-0.17366 -0.15405,-0.23616 -0.0433,-0.125 -0.0372,-0.18524 -0.0356,-0.23874 0.003,-0.10698 0.0203,-0.17876 0.0398,-0.26251 0.0361,-0.15554 0.0971,-0.33618 0.17053,-0.53176 -0.13562,-0.0167 -0.38525,0.0516 -0.50281,0.24186 -0.49042,0.79358 -1.56091,1.55566 -2.70935,2.24896 -0.57409,0.34665 -1.16138,0.65439 -1.69549,0.88057 -0.53418,0.22616 -0.98682,0.38774 -1.45209,0.37361 -0.36957,-0.0113 -0.61511,-0.0181 -0.89868,-0.14107 -0.0709,-0.0307 -0.15259,-0.068 -0.25116,-0.17621 -0.0985,-0.10818 -0.19232,-0.35995 -0.13745,-0.56172 0.0188,-0.069 0.0549,-0.0733 0.0837,-0.11937 -0.41156,0.24269 -0.91211,0.56618 -1.41388,0.92966 -0.7865,0.56975 -1.38013,0.96278 -1.81488,1.20096 -0.21741,0.11909 -0.38349,0.20248 -0.58087,0.25166 -0.0986,0.0246 -0.21009,0.0511 -0.40149,0.003 -0.19147,-0.054 -0.42444,-0.32936 -0.44495,-0.52918 -0.0411,-0.39959 0.10699,-0.4837 0.22119,-0.65112 0.1142,-0.16742 0.26447,-0.35084 0.46143,-0.56999 0.39392,-0.43831 0.97125,-1.01007 1.74096,-1.72031 0.0386,-0.0356 0.0447,-0.0504 0.0822,-0.0853 -2.67725,2.14842 -4.98212,3.65441 -6.21509,4.17131 -0.31568,0.13232 -0.51013,0.25927 -0.9126,0.17982 -0.10064,-0.0198 -0.22925,-0.0666 -0.34058,-0.17415 -0.11132,-0.1075 -0.17834,-0.268 -0.19225,-0.39584 -0.0278,-0.25565 0.053,-0.39244 0.12609,-0.52606 0.29224,-0.53447 0.91871,-1.14495 2.10791,-2.18334 0.0444,-0.0388 0.0449,-0.0485 0.0878,-0.0863 -0.34527,0.24794 -0.58148,0.37976 -0.98907,0.69919 -0.99365,0.77858 -1.5014,1.21013 -2.08466,1.36839 -0.14581,0.0396 -0.32098,0.0662 -0.51367,10e-4 -0.19263,-0.061 -0.36017,-0.21977 -0.44232,-0.36689 -0.16431,-0.29425 -0.15088,-0.53319 -0.15088,-0.81494 0,-0.54398 0.30139,-0.83338 0.64282,-1.18444 0.0658,-0.0676 0.1518,-0.1324 0.22479,-0.19946 -0.32727,-0.0764 -0.42608,-0.51483 0.0434,-0.8728 0.0484,-0.0369 0.0969,-0.0737 0.14526,-0.11062 0.36072,-0.24801 0.73951,-0.47079 1.14978,-0.62785 0.23645,-0.0914 0.47077,-0.1873 0.70484,-0.28422 -0.009,-0.0105 -0.0187,-0.0145 -0.0273,-0.0264 -0.0944,-0.12947 -0.12134,-0.31393 -0.10285,-0.43096 0.037,-0.2341 0.12372,-0.28994 0.17725,-0.34778 0.10705,-0.11573 0.20086,-0.17867 0.32812,-0.26511 0.25458,-0.1729 0.61621,-0.38452 1.07697,-0.63769 0.92151,-0.50635 2.22607,-1.16892 3.66021,-1.86551 2.86817,-1.39322 6.23407,-2.91558 8.07966,-3.57343 0.80615,-0.28744 1.4342,-0.58823 2.03497,-0.95241 z"
       id="path59" />
    <path
       style="fill:#000000;fill-rule:evenodd;stroke:none"
       d="m -830.27981,-97.113217 c -0.1499,0.15503 -0.30853,0.35371 -0.45324,0.49608 -0.50586,0.49777 -0.94855,0.90582 -1.36267,1.18597 0.45843,-0.31637 0.91162,-0.68242 1.41485,-1.19838 0.11414,-0.117 0.2815,-0.35272 0.40106,-0.48369 z"
       id="path60" />
    <path
       style="fill:#000000;fill-rule:evenodd;stroke:none"
       d="m -844.74819,-112.29886 c 0.0255,0.0122 0.0466,0.0345 0.0729,0.0455 -0.0234,-0.0173 -0.0499,-0.0275 -0.0729,-0.0455 z"
       id="path61" />
    <path
       style="fill:#000000;fill-rule:evenodd;stroke:none"
       d="m -822.69167,-115.51778 c -0.21362,0.19545 -0.35144,0.30773 -0.57056,0.50952 -4.17804,3.84861 -7.04291,6.12551 -9.41906,7.12774 -0.75806,0.31973 -1.46149,0.44809 -2.1435,0.49351 0.0971,0.006 0.11481,0.0275 0.21857,0.0341 1.23364,0.0786 2.09192,0.18361 2.79986,0.40825 0.70795,0.22466 1.24982,0.58733 1.74353,1.08107 0.51569,0.5157 1.67438,1.1469 2.28052,1.26814 0.45185,0.0904 0.85932,0.24286 1.19013,0.44494 0.33068,0.20208 0.68518,0.44243 0.68518,0.97151 0,0.2289 -0.0997,0.39912 -0.1814,0.58137 0.36932,-0.52183 0.61304,-0.83941 1.03198,-1.43867 2.70533,-3.8696 5.61322,-7.81813 6.6084,-8.93434 0.24158,-0.27098 0.30603,-0.4045 0.46869,-0.61858 -0.17401,0.14104 -0.30237,0.21098 -0.51831,0.42323 -0.86505,0.85004 -2.04425,2.26912 -3.57031,4.2938 -0.81183,1.07713 -1.58441,1.97752 -2.26288,2.64738 -0.67877,0.66985 -1.20783,1.12586 -1.81799,1.27899 -0.85877,0.21553 -1.80744,0.0727 -2.60041,-0.23771 -0.39648,-0.15519 -0.75421,-0.35291 -1.04181,-0.61289 -0.28753,-0.25998 -0.53173,-0.61142 -0.53173,-1.0511 0,-0.37817 0.13439,-0.4985 0.2749,-0.72089 0.14056,-0.22239 0.32739,-0.47328 0.55401,-0.75293 0.45325,-0.55928 1.06421,-1.22642 1.7389,-1.88516 1.44342,-1.40968 3.33044,-3.43583 5.06329,-5.31129 z"
       id="path62" />
    <path
       style="fill:#000000;fill-rule:evenodd;stroke:none"
       d="m -828.21071,-118.33312 c -0.96204,0.60914 -2.16858,1.42301 -3.83753,2.61586 -1.05304,0.75269 -2.18719,1.49447 -3.17755,2.0898 -0.99017,0.59534 -1.79748,1.03665 -2.35492,1.22266 -1.16272,0.38794 -2.76941,0.55328 -4.22351,0.54674 -0.72699,-0.004 -1.41187,-0.0515 -1.98535,-0.1509 -0.27362,-0.0474 -0.51721,-0.0957 -0.74158,-0.17053 0.29382,0.19785 0.59729,0.38132 0.9353,0.48369 0.42853,0.1297 0.9256,0.42717 1.58033,0.84233 0.65472,0.41516 1.4104,0.94109 2.12127,1.48364 1.22644,0.93598 1.96363,1.36743 2.76679,1.62522 -0.58423,-0.23476 -1.15552,-0.53772 -1.70636,-0.97101 -0.41632,-0.3273 -0.73517,-0.60108 -0.97101,-0.88625 -0.23584,-0.28515 -0.43091,-0.65584 -0.3302,-1.06607 0.10065,-0.41025 0.41516,-0.64201 0.75183,-0.82321 0.33673,-0.1812 0.75537,-0.334 1.29144,-0.5054 2.25019,-0.71936 4.19495,-1.88693 8.3421,-5.0493 0.78187,-0.59619 1.0348,-0.86303 1.53895,-1.28727 z"
       id="path63" />
    <path
       style="fill:#000000;fill-rule:evenodd;stroke:none"
       d="m -858.89821,-128.33096 c 0.12518,0.11467 0.18457,0.20454 0.33117,0.32554 0.95154,0.78533 2.33448,1.68508 3.96515,2.54196 1.12311,0.5902 1.98004,1.11336 2.60498,1.60871 0.625,0.49533 1.04718,0.96101 1.19116,1.53479 0.0231,0.0923 0.26703,0.52206 0.64289,0.93947 0.37573,0.4174 0.87329,0.86837 1.37658,1.22732 0.90827,0.64766 1.47724,1.0835 1.8299,1.70892 0.35272,0.62545 0.40985,1.31653 0.44647,2.34922 0.0406,1.1436 0.39356,2.14102 0.94574,2.91816 -0.0756,-0.21165 -0.12433,-0.44191 -0.17883,-0.70332 -0.11163,-0.53598 -0.17768,-1.16696 -0.17725,-1.79834 v -0.001 l 0.003,-2.15026 c 5.5e-4,-0.26469 0.18823,-0.49202 0.44806,-0.54261 l 4.31549,-0.83818 c 2.85699,-0.55474 6.5202,-1.72794 9.8645,-3.06647 -0.0362,-0.0921 -0.058,-0.19322 -0.0641,-0.30181 -1.53814,0.60418 -3.13854,1.16669 -4.68548,1.65105 -3.08313,0.9652 -5.9198,1.62685 -7.71838,1.67072 -1.99183,0.0486 -3.10883,-0.27626 -4.79664,-1.39321 -0.62139,-0.41102 -1.08984,-0.7046 -1.41644,-1.06195 -0.16327,-0.17866 -0.33484,-0.41656 -0.31061,-0.75551 0.0243,-0.33892 0.26685,-0.58401 0.49097,-0.72296 0.44806,-0.27789 1.0531,-0.42187 2.03449,-0.62631 0.98138,-0.20444 2.31787,-0.43542 4.09124,-0.74051 0.51606,-0.0888 0.87482,-0.17981 1.34924,-0.27234 -0.88037,0.0154 -1.62121,0.0111 -2.68463,0.0594 -3.29675,0.14981 -5.02392,0.222 -6.30035,0.10282 -1.27624,-0.11914 -2.07599,-0.45182 -3.32074,-1.02731 -1.44885,-0.66974 -3.10712,-1.62721 -3.87054,-2.28514 z"
       id="path64" />
    <path
       style="fill:#000000;fill-rule:evenodd;stroke:none"
       d="m -864.50771,-139.31633 c 0.11456,0.12222 0.19305,0.2341 0.31207,0.35449 0.52826,0.53417 1.08783,1.0392 1.55652,1.39734 0.23431,0.17905 0.44806,0.32149 0.6087,0.40927 0.16071,0.0878 0.28418,0.10181 0.2212,0.10181 0.1372,0 0.34063,0.058 0.47387,0.20154 0.13324,0.14352 0.16791,0.30983 0.1731,0.42477 0.0104,0.2299 -0.0497,0.36246 -0.11524,0.51367 -0.13098,0.30223 -0.34607,0.633 -0.6361,1.00148 -0.63013,0.80113 -0.81299,1.20177 -0.78187,1.46605 0.0311,0.26431 0.34473,0.72159 1.16785,1.51001 0.41223,0.3949 0.78339,0.81461 1.06354,1.19269 0.14007,0.18906 0.25763,0.36697 0.34881,0.53847 0.0912,0.17149 0.17566,0.3134 0.17566,0.58238 0,0.0101 0.0759,0.12765 0.091,0.17053 0.0101,-0.15051 0.0811,-0.2904 0.19665,-0.38734 0.1156,-0.0969 0.26569,-0.14257 0.41571,-0.12632 l 2.60083,0.35813 c 4.00208,0.55153 9.08246,0.23723 13.18787,-0.82012 1.86767,-0.48098 5.15588,-1.75004 8.01135,-3.01272 0.6745,-0.29825 1.16614,-0.55914 1.771,-0.84645 -6.75678,3.05366 -12.36273,4.5645 -17.19586,4.56819 -2.36371,0.002 -4.66987,-0.26514 -6.57221,-0.71985 -1.90252,-0.45471 -3.39911,-1.04529 -4.20849,-1.93993 -0.17011,-0.18794 -0.30927,-0.34843 -0.42328,-0.52917 -0.11402,-0.18073 -0.20783,-0.40807 -0.19898,-0.66042 0.0178,-0.5047 0.33173,-0.7911 0.69769,-1.15704 0.41199,-0.41202 0.99824,-0.67538 1.92646,-0.75034 0.92822,-0.0751 2.27844,-0.0271 4.54498,0.0977 2.68457,0.1478 4.25891,0.0922 5.73139,-0.0935 l -3.35639,-0.15761 c -3.27344,-0.15449 -5.89008,-0.50207 -7.21558,-1.06351 -1.0863,-0.46012 -2.46966,-1.2315 -3.60754,-1.95492 -0.37769,-0.24014 -0.66217,-0.45148 -0.96478,-0.66921 z"
       id="path65" />
    <path
       style="fill:#000000;fill-rule:evenodd;stroke:none"
       d="m -836.60818,-139.6848 c -1.11029,0.35327 -2.46087,0.82779 -4.91027,1.85106 l -1.90845,0.79686 c 1.34387,-0.45114 2.66644,-0.8309 3.91192,-1.33841 1.10029,-0.44833 2.09174,-0.89034 2.84375,-1.27074 0.0357,-0.0181 0.0284,-0.0207 0.063,-0.0388 z"
       id="path66" />
    <path
       style="fill:#000000;fill-rule:evenodd;stroke:none"
       d="m -694.42971,-147.29053 c -0.37561,0 -0.94336,0.29704 -1.34778,0.74208 -0.40442,0.44521 -0.60016,0.99787 -0.54565,1.28467 0.0368,0.1937 0.0283,0.19951 0.26507,0.30231 0.23676,0.10281 0.73981,0.19778 1.53217,0.2496 0.56354,0.0369 1.11597,0.0328 1.53015,0 0.20716,-0.0164 0.38135,-0.0402 0.49097,-0.0646 0.0228,-0.005 0.0272,-0.0116 0.0439,-0.0191 0.12152,-0.13925 0.1847,-0.28792 0.16742,-0.52038 -0.0188,-0.25391 -0.13629,-0.57731 -0.34051,-0.88108 -0.40851,-0.60757 -1.13788,-1.09349 -1.79578,-1.09349 z m 0.1059,0.89452 v 5.2e-4 c 0.0158,0 0.0317,0.002 0.0475,0.003 0.0439,0.003 0.088,0.007 0.13178,0.0119 3e-4,-4e-5 5.5e-4,0 10e-4,0 0.003,-1.6e-4 0.007,-0.003 0.01,-0.003 0.007,-2.2e-4 0.0105,0.006 0.0176,0.006 0.0168,0.002 0.0334,0.005 0.0501,0.008 0.0968,0.0207 0.18848,0.0523 0.26721,0.11473 0.084,0.0674 0.14185,0.14191 0.13123,0.25632 -0.0101,0.0816 -0.0254,0.1629 -0.0671,0.23512 -0.0103,0.015 -0.0189,0.0311 -0.0305,0.0449 -0.0565,0.0681 -0.13879,0.10153 -0.22223,0.12353 -0.10077,0.0235 -0.20154,0.0288 -0.30487,0.0227 -0.0935,-0.002 -0.18719,-0.003 -0.28064,-0.01 -0.0911,-0.006 -0.18237,-0.0144 -0.27234,-0.031 l 10e-4,-5.1e-4 c -0.14502,-0.0267 -0.16955,-0.13279 -0.10339,-0.18655 -0.0715,-0.0169 -0.1449,-0.0454 -0.16382,-0.12712 -0.006,-0.0233 0.004,-0.0479 0.006,-0.0718 0.0103,-0.0167 0.0192,-0.0344 0.031,-0.0502 0.0306,-0.0407 0.095,-0.0752 0.13697,-0.10334 0.064,-0.0353 0.12829,-0.0701 0.19171,-0.10646 0.10974,-0.0555 0.22467,-0.10386 0.3457,-0.12816 0.0255,-0.002 0.0508,-0.007 0.0765,-0.008 z"
       id="path67" />
    <path
       style="fill:#000000;fill-rule:evenodd;stroke:none"
       d="m -688.62392,-147.96025 c 0.0389,0.0274 0.0773,0.0556 0.11731,0.0811 0.0587,0.04 0.12896,0.0643 0.17364,0.12196 0.008,0.0137 0.0178,0.0267 0.0238,0.0414 0.033,0.0792 0.0152,0.1664 -0.0217,0.24029 -0.0103,0.0142 -0.02,0.0295 -0.0316,0.0429 -0.0552,0.0646 -0.13055,0.0964 -0.20874,0.12404 -0.0685,0.0266 -0.13141,0.0658 -0.1969,0.0987 -0.014,0.009 -0.0182,0.0113 -0.0217,0.0134 -0.002,0.001 -0.01,0.007 -0.03,0.0207 -0.0154,0.0107 -0.0131,-0.008 -0.0191,0.016 -0.004,0.0198 -0.007,7.1e-4 -0.007,0.004 -0.002,0.0131 0.0162,0.0251 0.0211,0.0357 l 0.002,0.001 c 0.0386,0.089 0.0367,0.16005 0.0103,0.19636 0.0814,0.35788 0.14246,0.76285 0.19635,1.22422 0.0957,0.8182 0.15247,1.76626 0.17004,2.6846 0.0176,0.91833 -0.005,1.80313 -0.0729,2.5063 -0.0341,0.35158 -0.0781,0.65581 -0.14417,0.91466 -0.0502,0.19681 -0.0652,0.38556 -0.23254,0.56637 3.7e-4,0.0219 -0.003,0.0466 -0.0109,0.0739 -0.0179,0.0612 -0.0384,0.12011 -0.0682,0.17672 -0.0212,0.0361 -0.0344,0.0748 -0.0413,0.11576 -0.005,0.0586 -0.0113,0.11601 -0.028,0.1726 -0.005,0.0249 -0.0271,0.0758 -0.0181,0.0997 0.0126,0.0482 0.009,0.0997 0.0227,0.14727 0.0145,0.0253 0.0196,0.055 0.0372,0.0786 0.0789,0.10531 0.0354,0.19439 -0.0362,0.20669 0.0469,0.11218 0.0877,0.18912 0.11682,0.21446 0.0434,0.0379 0.14362,0.098 0.49194,0.11162 0.6966,0.0272 2.1803,-0.19002 4.93512,-0.65164 2.31189,-0.38741 3.85535,-0.72264 4.81678,-1.06299 0.96142,-0.34033 1.2677,-0.63711 1.38073,-0.93173 0.0563,-0.14655 0.06,-0.21567 -0.0206,-0.39017 -0.0807,-0.17447 -0.28912,-0.44122 -0.67852,-0.77203 -0.77887,-0.66165 -2.24427,-1.56609 -4.56403,-2.83704 -1.11468,-0.61046 -2.23773,-1.27022 -3.15588,-1.84381 -0.91822,-0.57361 -1.59986,-1.0251 -1.96479,-1.36685 -0.3153,-0.29532 -0.66442,-0.42587 -0.94256,-0.47491 z"
       id="path68" />
    <path
       style="fill:#000000;fill-rule:evenodd;stroke:none"
       d="m -873.62038,-155.6864 c 0.69214,0.85219 1.3927,1.75206 2.0769,2.41278 l 1.88672,1.82159 c 0.1936,0.187 0.22479,0.48613 0.0739,0.709 l -1.13324,1.67072 c -0.30157,0.44438 -0.57775,0.89996 -0.77203,1.26089 -0.0972,0.18047 -0.17413,0.33762 -0.22119,0.44959 -0.0231,0.0551 -0.035,0.10939 -0.0408,0.13489 0.0154,0.3529 0.20849,0.78985 0.68621,1.30068 0.49805,0.5326 1.28272,1.11904 2.33576,1.71048 0.8689,0.48804 1.4939,0.90674 1.93585,1.34671 0.44196,0.43995 0.70722,0.95087 0.70746,1.48517 0,-0.0572 0.0162,0.0688 0.10333,0.23203 0.0519,0.0973 0.15393,0.23913 0.2403,0.36691 0.0233,-0.11264 0.0587,-0.22674 0.10596,-0.28165 0.0616,-0.0717 0.11193,-0.10238 0.15087,-0.12504 0.0779,-0.0453 0.12159,-0.0569 0.1623,-0.0687 0.0813,-0.0236 0.14496,-0.0341 0.22375,-0.0455 0.15753,-0.0227 0.35791,-0.041 0.61389,-0.0589 0.51203,-0.0358 1.23658,-0.0671 2.12958,-0.0935 1.78607,-0.053 4.24213,-0.0853 6.94379,-0.0853 4.7724,0 7.24493,-0.0113 8.94,-0.17725 1.69507,-0.16603 2.62848,-0.47574 4.46484,-1.12242 0.79749,-0.28082 1.15729,-0.45412 1.73426,-0.68263 -0.73267,0.14938 -1.3285,0.24914 -2.36054,0.50796 -2.40314,0.60254 -6.3139,1.07039 -10.2738,1.24231 -7.17877,0.31169 -10.65961,-0.27966 -15.39441,-2.62825 -1.51691,-0.75246 -2.482,-1.38173 -2.80292,-2.3177 -0.16058,-0.46798 -0.0782,-0.9932 0.17566,-1.42368 0.25391,-0.43066 0.65033,-0.80652 1.17102,-1.19527 l 1.22937,-0.91621 c 0.14636,-0.10883 0.33698,-0.13858 0.50952,-0.0796 l 4.95581,1.6924 c 3.09772,1.05852 6.70093,1.88917 9.31519,2.27116 0.64209,0.0938 0.95257,0.0704 1.45056,0.10698 -0.99414,-0.25676 -2.25787,-0.56376 -3.65454,-0.87745 -9.1723,-2.0602 -13.37561,-4.08259 -17.66925,-8.54316 z"
       id="path69" />
    <path
       style="fill:#000000;fill-rule:evenodd;stroke:none"
       d="m -874.07149,-174.93845 c 0.62811,0.22316 1.24414,0.401 1.85931,0.58084 -0.60413,-0.16143 -1.26202,-0.39192 -1.85931,-0.58084 z"
       id="path70" />
    <path
       style="fill:#000000;fill-rule:evenodd;stroke:none"
       d="m -880.86489,-177.70418 c 0.0463,0.10681 0.0628,0.17041 0.12457,0.29663 0.31061,0.6353 0.80182,1.48866 1.36994,2.38384 1.13623,1.79036 2.60815,3.77961 3.5047,4.63383 0.94757,0.90302 2.59008,2.11302 3.49383,2.58847 l 1.80658,0.94928 c 0.21692,0.11391 0.33325,0.35678 0.28601,0.59717 -0.0472,0.24042 -0.24676,0.42123 -0.49066,0.44464 l -3.22461,0.31574 c -1.35351,0.13247 -2.36255,0.22827 -3.03332,0.33796 -0.33545,0.0549 -0.586,0.11431 -0.73383,0.16898 -0.0591,0.0219 -0.03,0.006 -0.0522,0.0191 0.0372,0.075 0.0976,0.18387 0.2351,0.35347 0.32386,0.39955 0.91163,0.98709 1.69397,1.77768 h -10e-4 l 2.75897,2.78638 c 0.15717,0.15875 0.20361,0.39633 0.1178,0.60254 -0.0859,0.20621 -0.28717,0.3407 -0.5105,0.34106 h -1.5224 c -0.36316,0 -0.69073,0.0554 -0.88782,0.11939 0.0371,0.0822 0.0796,0.24775 0.28058,0.59376 0.20514,0.35306 0.52869,0.81346 0.8573,1.27486 -0.0879,-0.14703 -0.21106,-0.29355 -0.26092,-0.44649 -0.0487,-0.14863 -0.0812,-0.32712 -0.0248,-0.53435 0.0569,-0.20721 0.23242,-0.39877 0.40356,-0.48367 0.34235,-0.16983 0.62976,-0.12521 0.99377,-0.0672 1.45679,0.2314 4.29535,1.34539 9.32032,3.44268 4.755,1.98449 8.39831,2.77224 15.30298,3.05561 -0.006,-0.0764 -0.002,-0.1512 0.0109,-0.22375 -4.27978,-0.28925 -8.19739,-0.76261 -10.40503,-1.34256 -1.63379,-0.42914 -4.38684,-1.4996 -6.24975,-2.42053 -1.83521,-0.90738 -4.64563,-2.77018 -6.97687,-4.48603 -1.16541,-0.858 -2.20404,-1.67471 -2.93732,-2.3244 -0.36658,-0.32483 -0.65515,-0.60351 -0.86145,-0.85162 -0.10309,-0.12407 -0.18817,-0.23364 -0.25678,-0.38913 -0.0344,-0.0777 -0.0685,-0.17017 -0.0703,-0.30643 -0.002,-0.13629 0.0577,-0.3331 0.18451,-0.45993 0.25971,-0.25943 0.38642,-0.22171 0.57666,-0.26407 0.19031,-0.0424 0.41443,-0.0748 0.6734,-0.10284 0.51801,-0.0561 1.16956,-0.0894 1.85211,-0.0894 4.89905,0 10.45942,1.03296 17.00873,3.14194 1.52033,0.48959 2.87311,0.87805 4.0943,1.21594 -1.71112,-0.67973 -3.62622,-1.41449 -7.69665,-2.85357 -5.12073,-1.81048 -10.22937,-3.62569 -11.37604,-4.04575 -2.60162,-0.95294 -4.703,-2.74817 -6.91589,-5.83118 -0.63282,-0.88165 -0.99036,-1.38971 -1.15802,-1.83398 -0.042,-0.11109 -0.0851,-0.22132 -0.0719,-0.40412 0.0132,-0.18283 0.19201,-0.47268 0.40258,-0.55603 0.21058,-0.0834 0.34882,-0.05 0.46302,-0.0248 0.11419,0.0253 0.2135,0.0634 0.32043,0.10852 1.39386,0.58922 2.66077,0.98375 3.95117,1.40663 -0.96118,-0.35495 -1.93115,-0.74919 -2.89904,-1.19786 -1.12763,-0.52252 -2.18579,-0.96572 -2.96881,-1.25314 -0.21113,-0.0775 -0.336,-0.11023 -0.50129,-0.1633 z"
       id="path71" />
    <path
       style="fill:#000000;fill-rule:evenodd;stroke:none"
       d="m -880.18484,-190.7628 c -0.031,0.005 -0.063,0.006 -0.0868,0.0274 -0.0351,0.0314 -0.091,0.10847 -0.13592,0.25114 -0.0899,0.28534 -0.11048,0.80145 -0.015,1.39063 0.19092,1.17836 0.82111,2.64915 1.67737,3.54293 0.26172,0.27315 1.34985,1.16159 2.76575,2.22983 1.41589,1.06827 3.19861,2.36238 5.00073,3.62045 1.81055,1.26404 3.48444,2.45961 4.72632,3.36878 0.62097,0.4546 1.13342,0.83682 1.50427,1.12398 0.18549,0.14357 0.3346,0.26317 0.4491,0.35966 0.0573,0.0482 0.10596,0.0901 0.1499,0.13178 0.0439,0.0416 0.0754,0.0557 0.14984,0.17621 0.0735,0.11901 0.12244,0.30514 0.0904,0.47543 -0.032,0.17029 -0.12402,0.29397 -0.20715,0.37363 -0.16632,0.15927 -0.31921,0.20898 -0.48529,0.25939 -0.33203,0.10083 -0.73541,0.1442 -1.21283,0.1442 -0.6416,0 -1.33948,-0.0746 -2.03912,-0.15503 0.37958,0.0648 0.68036,0.16477 1.07745,0.2253 4.19397,0.63946 5.84296,1.13896 7.98657,2.42775 1.41077,0.84829 3.13819,1.7619 4.94696,2.65255 0.1717,-0.13241 0.39332,-0.23608 0.66407,-0.29611 -0.75275,-0.36044 -1.40979,-0.68396 -1.78644,-0.8945 -2.03009,-1.13475 -7.80255,-5.11337 -13.23749,-8.98964 -2.71753,-1.93823 -5.33679,-3.84363 -7.32666,-5.33766 -0.99493,-0.74702 -1.83258,-1.39062 -2.45001,-1.88773 -0.30872,-0.24856 -0.56195,-0.46072 -0.75708,-0.63459 -0.19507,-0.17385 -0.31476,-0.26839 -0.44232,-0.46303 -0.46759,-0.71363 -0.77124,-1.16416 -0.80097,-1.73116 -0.007,-0.14174 0.0107,-0.31218 0.10749,-0.47799 0.0967,-0.16582 0.27581,-0.29106 0.4356,-0.34055 0.31958,-0.099 0.56171,-0.0303 0.8418,0.0574 1.12055,0.3506 2.99835,1.50702 6.11798,3.58325 7.64887,5.09074 20.0954,11.27164 28.7088,14.25803 4.65998,1.61581 7.44226,2.69934 9.61029,4.08349 2.16791,1.38413 3.67365,3.05425 5.74024,5.73709 0.67511,0.87633 1.08148,1.4426 1.28052,2.0004 0.19903,0.5578 0.0761,1.13989 -0.19794,1.57874 -0.38416,0.61497 -0.50317,1.10229 -0.3736,1.85879 0.12958,0.75668 0.55945,1.77986 1.35602,3.22873 0.71307,1.29718 1.10333,1.98869 1.23242,2.63242 0.0646,0.32193 0.0365,0.65846 -0.0852,0.93429 -0.12183,0.27583 -0.29975,0.47974 -0.49457,0.69505 -1.07831,1.19155 -2.09808,3.97777 -2.09808,5.86629 0,1.32659 0.25823,1.97464 1.25317,3.10782 0.84912,0.9671 1.8941,2.77275 2.45514,4.19614 1.79669,4.55819 4.59918,7.60022 7.59491,8.48889 0.50128,0.14871 0.97357,0.431 1.20349,0.91673 0.2298,0.48573 0.25531,1.04173 0.25531,1.86035 0,0.79909 0.064,1.23162 0.35193,1.77095 0.2879,0.53934 0.84766,1.20711 1.86139,2.27895 0.66406,0.70215 1.26501,1.41586 1.71045,2.01538 0.22278,0.29974 0.40722,0.57036 0.54419,0.80821 0.13696,0.23786 0.2594,0.38207 0.2594,0.73743 0,-0.0246 0.12683,0.34627 0.45886,0.74208 0.33209,0.3958 0.81848,0.86014 1.36584,1.30638 1.09473,0.89247 2.47522,1.71346 3.28247,1.91823 6.29187,1.59599 9.43567,2.30092 12.71808,1.14722 2.53253,-0.8902 5.29975,-2.99933 9.60822,-6.76961 -0.30091,0.1304 -0.60321,0.25712 -0.90644,0.3824 -0.57074,0.47926 -1.16925,0.98924 -1.68981,1.4149 -1.8346,1.50012 -3.2464,2.59386 -3.9853,3.01582 -1.46386,0.83608 -3.35333,1.51377 -5.05755,1.91256 -0.85217,0.1994 -1.65546,0.32811 -2.34766,0.3638 -0.6922,0.0357 -1.26666,0.0145 -1.75335,-0.25786 -0.21161,-0.11841 -0.43097,-0.23561 -0.57728,-0.53743 -0.14624,-0.30182 -0.0411,-0.70043 0.12507,-0.93018 0.33233,-0.45952 0.88531,-0.82855 1.88775,-1.51826 0.50965,-0.35063 1.69849,-1.275 3.13678,-2.42104 -0.0723,-0.0771 -0.17731,-0.18909 -0.28009,-0.29869 -2.64819,2.02969 -4.42175,3.17857 -5.72107,3.63492 -1.01587,0.35675 -2.22497,0.53406 -3.37707,0.54829 -1.1521,0.0142 -2.23596,-0.12181 -3.0484,-0.49197 -0.36072,-0.16435 -0.69019,-0.43994 -1.05683,-0.78444 -0.36658,-0.34451 -0.74835,-0.75716 -1.10168,-1.1803 -0.3534,-0.42296 -0.67566,-0.8551 -0.92041,-1.24489 -0.24469,-0.38977 -0.45056,-0.66439 -0.45056,-1.13327 0,-0.32086 0.17919,-0.43829 0.26611,-0.5028 0.0869,-0.0645 0.15759,-0.098 0.23358,-0.13074 0.15204,-0.0655 0.32361,-0.11774 0.52918,-0.17157 0.41107,-0.10765 0.94891,-0.21002 1.54302,-0.29146 0.46851,-0.0642 1.55304,-0.37599 2.8014,-0.82114 1.24835,-0.44512 2.69256,-1.02334 4.01837,-1.62159 1.27148,-0.57367 3.72241,-1.63791 5.7619,-2.53371 -0.0632,-0.0832 -0.11633,-0.17157 -0.15814,-0.26511 -4.53925,1.99498 -7.70441,3.31467 -9.83814,4.00235 -3.4823,1.12236 -4.89508,0.74405 -6.82385,-0.0615 -0.73053,-0.30522 -1.26843,-0.60235 -1.65832,-1.06918 -0.3899,-0.46681 -0.57428,-1.0432 -0.71314,-1.78334 -0.0965,-0.51464 -0.13519,-1.01953 -0.11676,-1.45316 0.009,-0.21681 0.0319,-0.41493 0.078,-0.60048 0.0462,-0.18553 0.0926,-0.37153 0.29975,-0.55914 0.12445,-0.11275 0.19934,-0.13763 0.29974,-0.18552 0.10034,-0.0479 0.21533,-0.0959 0.35034,-0.14831 0.26996,-0.10478 0.61646,-0.22585 1.02472,-0.35762 0.81653,-0.26348 1.87555,-0.57147 2.9895,-0.86403 1.34681,-0.35372 4.28382,-1.26625 7.67243,-2.34662 -0.0818,-0.10768 -0.14588,-0.22456 -0.19177,-0.34831 -3.44367,1.05542 -6.18409,1.81433 -8.27906,2.24844 -3.67059,0.76064 -5.72375,0.6456 -7.31994,-0.17984 -1.00537,-0.51971 -2.24073,-1.69186 -3.38123,-2.98016 -1.14075,-1.28832 -2.13843,-2.62764 -2.50165,-3.66956 v -0.001 l -0.45733,-1.31619 c -0.0598,-0.1727 -0.0306,-0.3638 0.0781,-0.51075 0.10864,-0.14692 0.28284,-0.23077 0.46552,-0.22409 l 6.00842,0.21703 c 3.77142,0.13618 8.48395,-0.10051 12.02148,-0.48628 0.78937,-0.0861 1.20063,-0.19341 1.84894,-0.29145 -1.22851,0.0402 -2.565,0.0891 -4.13666,0.18293 -3.91888,0.23402 -8.45281,0.30973 -10.24487,0.15089 -2.11859,-0.18782 -4.13696,-0.7462 -5.77997,-1.5415 -1.64306,-0.79531 -2.92993,-1.81578 -3.52124,-3.05562 -0.35254,-0.73969 -0.57446,-1.27722 -0.56482,-1.9079 0.01,-0.63068 0.22754,-1.23987 0.60303,-2.22311 0.32324,-0.84644 0.59546,-1.50402 0.9054,-2.02108 0.30993,-0.51707 0.68847,-0.92146 1.1994,-1.09916 0.51092,-0.17769 1.06073,-0.10607 1.65985,0.0868 0.59912,0.19287 1.28155,0.51506 2.143,0.94774 5.10267,2.56279 11.97956,3.92749 21.14448,4.14909 1.50457,0.0364 2.7008,0.0526 3.80133,0.0568 -0.0658,-0.11493 -0.10761,-0.23589 -0.12507,-0.35811 -6.34625,0.10163 -13.58795,-0.53723 -18.17926,-1.8128 -6.49426,-1.80432 -9.99578,-4.26941 -12.20544,-8.68164 -0.45673,-0.91192 -0.7514,-1.612 -0.81494,-2.2381 -0.0318,-0.31307 -0.003,-0.63843 0.17877,-0.92089 0.18182,-0.28224 0.50031,-0.45091 0.81183,-0.50798 0.62347,-0.11409 1.33221,0.0496 2.32599,0.36948 0.99377,0.31992 2.25366,0.82474 3.83594,1.51103 6.09259,2.6426 14.37762,5.05898 19.13684,5.60433 2.55725,0.29301 5.40527,0.44711 7.59741,0.4563 0.55517,0.002 0.89642,-0.031 1.35083,-0.047 -1.22608,-0.19379 -2.86005,-0.40411 -5.89679,-0.73328 -5.33753,-0.57838 -13.63013,-2.40695 -17.5116,-3.8773 -1.35357,-0.51257 -3.07312,-1.12174 -3.76568,-1.33687 -1.16736,-0.36266 -2.89746,-1.47443 -4.71234,-2.82462 -1.81476,-1.3504 -3.64728,-2.92407 -4.78833,-4.22042 -0.90259,-1.02558 -1.86725,-2.62583 -2.63495,-4.19045 -0.76758,-1.56462 -1.35035,-2.99559 -1.35035,-4.01732 0,-0.10849 0.0332,-0.274 0.14936,-0.40671 0.11621,-0.13266 0.2796,-0.18898 0.3891,-0.20204 0.21905,-0.0261 0.31524,0.0277 0.4176,0.0687 0.20465,0.0821 0.3974,0.20219 0.63867,0.3669 0.48254,0.32943 1.11267,0.8341 1.80817,1.45367 5.61828,5.00458 9.33453,6.76251 19.44738,9.19116 3.11359,0.74779 6.125,1.0159 13.70612,1.20508 1.58386,0.0396 2.56024,0.0196 3.83185,0.0274 -10.50263,-0.54862 -18.21918,-1.58716 -24.1861,-3.57497 -6.25702,-2.08428 -10.67773,-5.21593 -14.55523,-9.78906 -1.24726,-1.4713 -2.02521,-2.59725 -2.34919,-3.58995 -0.16198,-0.49637 -0.20727,-0.97843 -0.0837,-1.42319 0.12354,-0.44458 0.41736,-0.81751 0.79688,-1.09502 0.98657,-0.72139 2.10498,-0.97102 3.32483,-0.56587 1.21985,0.4052 2.56189,1.35782 4.40338,2.92903 1.88898,1.61177 4.52972,3.5287 5.71228,4.17235 1.67596,0.91215 6.04303,2.22388 9.79169,3.08148 0.94921,0.21716 1.60443,0.29736 2.42932,0.44959 -0.64099,-0.16889 -1.16168,-0.32953 -1.87793,-0.4961 -8.97815,-2.08792 -14.74964,-5.48111 -19.30634,-11.39776 -0.99524,-1.29227 -2.0957,-3.03504 -2.95898,-4.59456 -0.43164,-0.77974 -0.8028,-1.51111 -1.07178,-2.12493 -0.0771,-0.17602 -0.0695,-0.28451 -0.1308,-0.43563 0.19556,1.05896 0.54645,2.27854 1.18604,3.58686 0.38855,0.79496 0.70373,1.53012 0.90533,2.09548 0.10083,0.28268 0.17395,0.51869 0.21448,0.72812 0.0203,0.10472 0.0363,0.19922 0.0273,0.33125 -0.004,0.066 -0.0119,0.14397 -0.062,0.25114 -0.0501,0.10721 -0.17456,0.2544 -0.34369,0.31473 -0.002,8.3e-4 -0.31244,0.13553 -0.6687,0.30487 -0.3562,0.16934 -0.80542,0.38875 -1.25726,0.61444 -0.47101,0.23529 -0.77454,0.38193 -0.92188,0.51368 -0.1474,0.13174 -0.22644,0.24917 -0.28991,0.68264 -0.12702,0.86693 0.003,2.79326 0.27179,6.76908 l 0.23101,3.41996 c 0.0124,0.19207 -0.0757,0.37685 -0.23284,0.48803 -0.15711,0.11117 -0.36066,0.13281 -0.53766,0.0572 l -1.73841,-0.7457 c -0.92798,-0.39819 -3.6358,-1.46625 -5.97064,-2.35387 -8.39111,-3.18986 -9.59326,-3.71025 -16.4223,-7.11119 -3.83722,-1.91095 -10.30402,-5.59775 -14.43378,-8.22534 -2.04858,-1.3036 -3.97772,-2.48888 -5.427,-3.34552 -0.72473,-0.42832 -1.33057,-0.77458 -1.76685,-1.00977 -0.21814,-0.11758 -0.39422,-0.20816 -0.51367,-0.26355 -0.0356,-0.0165 -0.052,-0.0218 -0.0754,-0.0315 z"
       id="path72" />
    <path
       style="fill:#000000;fill-rule:evenodd;stroke:none"
       d="m -802.47951,-202.5042 c 0.0876,0.10761 0.13934,0.17789 0.22845,0.28681 2.16016,2.64065 4.74176,5.63989 6.3598,7.31221 0.50098,0.51779 0.66401,0.6084 1.0149,0.9312 -0.29981,-0.3823 -0.57141,-0.73893 -0.98078,-1.2268 -1.22784,-1.46331 -2.87335,-3.31691 -4.51861,-5.10665 -0.76502,-0.83211 -1.38001,-1.43732 -2.10376,-2.19678 z"
       id="path73" />
    <path
       style="fill:#000000;fill-rule:evenodd;stroke:none"
       d="m -799.07918,-211.43854 c 0.0239,0.0355 0.0508,0.071 0.075,0.10646 0.006,-0.005 0.0114,-0.011 0.017,-0.0165 -0.0302,-0.0305 -0.0623,-0.0589 -0.092,-0.0899 z"
       id="path74" />
    <path
       style="fill:#000000;fill-rule:evenodd;stroke:none"
       d="m -831.93813,-215.76643 c 0.0136,0.24864 0.003,0.36657 0.0217,0.64697 0.14813,2.21783 0.7279,5.53207 1.25055,7.20886 0.27978,0.89766 0.5003,1.76413 0.63458,2.45515 0.0672,0.34552 0.1142,0.64573 0.13336,0.89866 0.01,0.12646 0.0106,0.24061 0.004,0.35554 -0.008,0.11491 -0.006,0.22858 -0.11835,0.40979 -0.2434,0.39389 -0.55944,0.46767 -0.91052,0.56844 -0.35113,0.10077 -0.7561,0.15658 -1.17358,0.15658 -0.50641,0 -1.66779,0.41936 -2.22986,0.86144 -0.91455,0.71936 -1.21857,1.63266 -0.95081,3.01326 0.26752,1.3806 1.193,3.17714 2.80707,5.28392 0.50134,0.65439 0.88147,1.15332 1.15699,1.54564 0.27551,0.39233 0.45294,0.65365 0.54516,0.97564 0.0461,0.16098 0.0725,0.3767 -0.0299,0.59481 -0.1026,0.21812 -0.30816,0.34524 -0.46203,0.39946 -0.30768,0.10839 -0.55158,0.0884 -0.87226,0.0884 -0.15905,0 -0.18109,0.008 -0.2832,0.24443 -0.0359,0.0829 -0.0209,0.31558 -0.045,0.44907 0.14532,-0.18669 0.36072,-0.32456 0.57263,-0.36794 0.45215,-0.0926 0.86389,0.0423 1.36011,0.25943 0.99237,0.43427 2.31244,1.32678 3.97754,2.66287 2.83886,2.2781 7.11389,4.94947 11.21222,7.13858 4.09851,2.1892 8.07446,3.90039 10.12957,4.27933 0.0631,0.0117 0.0626,-7e-4 0.12097,0.008 -0.26098,-0.13992 -0.49786,-0.27781 -0.89141,-0.42839 -5.38477,-2.05989 -14.14044,-6.87956 -17.79889,-9.82059 -4.34632,-3.49375 -8.74787,-8.53991 -10.23816,-11.86903 -0.42114,-0.94058 -0.66632,-1.49866 -0.70899,-2.05518 -0.0427,-0.55648 0.23591,-1.03192 0.58393,-1.41644 0.58734,-0.64918 1.56451,-1.00834 2.56622,-1.2299 1.00177,-0.22156 1.98358,-0.33652 2.74249,0.0992 0.24274,0.13937 0.3703,0.28935 0.61396,0.53693 0.24365,0.24754 0.5437,0.571 0.88366,0.95239 0.67993,0.76279 1.52008,1.7559 2.36414,2.80241 3.64764,4.52233 8.53418,9.135 11.32648,10.77144 0.34271,0.20085 0.47857,0.23558 0.74054,0.36794 -0.36799,-0.37746 -0.76337,-0.77434 -1.38904,-1.30638 -10.90796,-9.27562 -15.87598,-16.99315 -17.63928,-27.50116 z"
       id="path75" />
    <path
       style="fill:#000000;fill-rule:evenodd;stroke:none"
       d="m -794.50271,-268.9756 c -0.021,0.0103 -0.0715,0.0394 -0.13696,0.19897 0.0303,-0.0739 -0.0123,0.0532 -0.032,0.21185 -0.0197,0.15867 -0.0387,0.38126 -0.0574,0.65372 -0.0374,0.54486 -0.0706,1.29016 -0.0961,2.17609 -0.051,1.77191 -0.0734,4.10794 -0.0563,6.57168 0.0721,10.0784 0.0242,9.76581 4.77539,27.82105 1.6059,6.10272 3.85779,13.30728 5.06427,16.23932 1.21472,2.95141 2.32153,5.65735 2.48828,6.08232 0.0651,0.16598 0.14832,0.25531 0.0961,0.56586 -0.0261,0.15525 -0.22272,0.43689 -0.45471,0.4904 -0.23206,0.0535 -0.35126,-0.0142 -0.43719,-0.0548 -0.34375,-0.16246 -0.51362,-0.37769 -0.84595,-0.72812 -0.66449,-0.70088 -1.64569,-1.87674 -2.80554,-3.34552 -2.32001,-2.93759 -5.33503,-7.02649 -7.72821,-10.59936 -6.81885,-10.18036 -9.90247,-15.64011 -15.08277,-26.70588 -1.10266,-2.35528 -2.18701,-4.58938 -3.04431,-6.28796 -0.42859,-0.8493 -0.80151,-1.56525 -1.08826,-2.09137 -0.28674,-0.52609 -0.54968,-0.92032 -0.52917,-0.8971 -0.27625,-0.31259 -0.50806,-0.48654 -0.64545,-0.54415 -0.13739,-0.0576 -0.15936,-0.056 -0.28577,0.014 -0.25274,0.1399 -0.79119,0.85065 -1.4082,2.19831 -0.83795,1.83026 -1.13739,2.91931 -0.60199,5.16714 0.53534,2.2478 1.97913,5.6152 4.70307,11.58997 2.26287,4.96359 3.67181,8.15628 4.44158,10.13272 0.38489,0.98822 0.61127,1.66281 0.70746,2.15802 0.0481,0.24759 0.0799,0.44601 0.0181,0.69556 -0.0308,0.12475 -0.0985,0.27648 -0.23517,0.39428 -0.13659,0.11783 -0.32324,0.16898 -0.46399,0.16898 -0.18237,0 -0.23071,-0.0364 -0.30389,-0.0646 -0.0732,-0.0282 -0.14459,-0.0608 -0.22376,-0.10025 -0.15844,-0.079 -0.34686,-0.18451 -0.56225,-0.31213 -0.43079,-0.25525 -0.96814,-0.60053 -1.52081,-0.98084 -3.44275,-2.36908 -9.02436,-8.63278 -11.59156,-12.95474 -0.64319,-1.08267 -1.29376,-2.08954 -1.8175,-2.8298 -0.20624,-0.29157 -0.37,-0.50037 -0.52503,-0.69403 -0.0182,0.11099 -0.034,0.12228 -0.0491,0.27234 -0.0869,0.86966 -0.12402,2.38839 -0.12402,4.7315 0,7.11945 0.84723,10.58261 3.47473,14.40222 l 1.67071,2.4293 c 0.14789,0.21655 0.12366,0.50714 -0.058,0.69619 -0.1817,0.18909 -0.47107,0.22486 -0.69336,0.0857 l -1.91254,-1.20771 c -1.08703,-0.68619 -2.82019,-1.57449 -4.37182,-2.27789 -0.77594,-0.35168 -1.50983,-0.65845 -2.09235,-0.87384 -0.58252,-0.21536 -1.09143,-0.32141 -1.09094,-0.32141 -0.21308,0 -0.29401,0.0444 -0.28003,0.0341 0.0139,-0.0103 0.007,-0.0561 0.003,0.092 -0.0111,0.29623 0.19146,1.12838 0.67431,2.4469 0.59375,1.62112 1.07593,3.18228 1.37671,4.39248 0.15039,0.60511 0.25647,1.12006 0.3064,1.53064 0.025,0.20529 0.0367,0.38288 0.0274,0.55347 -0.009,0.17059 0.0122,0.3562 -0.22638,0.5948 -0.14868,0.14865 -0.32299,0.18196 -0.43823,0.18706 -0.11511,0.005 -0.20068,-0.0125 -0.28058,-0.0331 -0.15985,-0.0411 -0.30157,-0.10539 -0.4599,-0.18708 -0.31665,-0.16333 -0.67999,-0.40189 -1.05267,-0.69504 -0.59003,-0.46408 -1.05029,-0.77246 -1.3136,-0.88471 -0.096,-0.0409 -0.11908,-0.038 -0.14423,-0.0413 -0.0256,0.0491 -0.13958,0.35282 -0.16174,0.94413 0,9.7e-4 6e-5,0.003 0,0.004 0.18311,-0.17773 0.46393,-0.20739 0.68012,-0.0718 l 1.33941,0.95395 c 2.1117,1.5036 4.48883,4.42707 6.28131,7.64138 3.64948,6.54435 10.21454,12.90094 19.04328,18.37821 2.61658,1.62324 5.79193,3.44385 8.85321,5.14957 -0.0595,-0.16875 -0.11798,-0.33779 -0.17468,-0.50747 -7.58045,-4.49051 -15.18122,-9.82495 -18.9823,-13.45654 -6.22937,-5.95171 -9.04608,-10.36499 -12.50415,-19.58485 -0.97455,-2.59824 -1.94367,-5.14438 -2.12134,-5.5821 -0.0871,-0.21466 -0.20581,-0.36929 -0.12451,-0.73947 0.0406,-0.18509 0.23761,-0.41931 0.43096,-0.4873 0.19337,-0.068 0.33338,-0.0471 0.46046,-0.0238 0.50817,0.0934 1.07727,0.39325 2.19006,0.94931 1.46216,0.73078 3.57318,2.10764 4.81518,3.1409 1.15741,0.96305 3.18238,2.43076 4.42816,3.20807 1.39008,0.86753 3.72486,2.94934 5.36402,4.74546 0.47137,0.51649 0.84491,0.85844 1.2583,1.26554 -0.22955,-0.36138 -0.35999,-0.61067 -0.66663,-1.05677 -1.32025,-1.92124 -3.32879,-4.58609 -5.83325,-7.71427 -5.37213,-6.71035 -6.84417,-9.84845 -7.33233,-15.65951 -0.10218,-1.2161 -0.18555,-2.33585 -0.2367,-3.16416 -0.0256,-0.41412 -0.0422,-0.75448 -0.0507,-1.00302 -0.004,-0.12427 -0.006,-0.22421 -0.005,-0.30749 5.5e-4,-0.0416 -7.3e-4,-0.0782 0.005,-0.12247 0.002,-0.0221 0.005,-0.0458 0.0124,-0.0837 0.008,-0.0379 -0.007,-0.08 0.0961,-0.22427 3.7e-4,-5.5e-4 0.12451,-0.12574 0.12506,-0.1261 4.9e-4,-3.7e-4 0.16266,-0.0835 0.16327,-0.0837 6.1e-4,-1.8e-4 0.10968,-0.0238 0.15558,-0.0248 0.0458,-9.8e-4 0.0849,0.003 0.1178,0.009 0.13153,0.0251 0.17804,0.0641 0.216,0.0894 0.076,0.0507 0.1001,0.0815 0.13025,0.11264 0.0604,0.0623 0.11255,0.12509 0.17621,0.20618 0.12738,0.1622 0.29193,0.38763 0.49042,0.67026 0.39691,0.56521 0.92627,1.3537 1.49756,2.23706 2.26739,3.50622 8.69268,10.16549 12.86071,13.2948 2.42572,1.82135 3.34949,2.9711 5.0669,6.31021 0.93487,1.81793 2.52276,4.55392 3.82196,6.62338 -0.0222,-0.33266 0.17926,-0.56502 0.45892,-0.58809 -2.35913,-3.64534 -4.17169,-7.1548 -5.54181,-10.75594 -0.93969,-2.46978 -4.04046,-9.68694 -6.86261,-15.96697 -2.68927,-5.98386 -4.14294,-9.35721 -4.77282,-11.68509 -0.63013,-2.32785 -0.3736,-3.69477 0.31726,-5.22913 l 0.63873,-1.418 c 0.0925,-0.20593 0.30066,-0.33514 0.52625,-0.32663 0.22552,0.009 0.4234,0.15308 0.50006,0.36539 l 0.60046,1.65417 v 5.2e-4 5.2e-4 5.2e-4 c 0.12469,0.34369 0.89319,2.01666 1.96582,4.24106 1.07239,2.22442 2.47125,5.06695 3.93512,7.9892 3.74072,7.4681 7.14136,13.37759 11.4856,19.96932 5.02746,7.62804 7.30249,10.74318 12.92065,17.6139 h 1.39581 0.9679 c 0.0957,-0.51067 0.18548,-1.02251 0.28833,-1.5322 0.0244,-0.12607 0.049,-0.25217 0.0734,-0.37826 -4.16797,-7.97645 -6.50122,-14.90711 -9.81128,-28.6427 -3.05243,-12.66587 -3.61865,-16.59784 -3.43182,-23.8125 0.0659,-2.5467 0.0938,-3.83561 0.232,-4.52274 0.0345,-0.17178 0.045,-0.31229 0.21447,-0.51364 0.0846,-0.10068 0.26044,-0.22147 0.4563,-0.23102 0.19586,-0.01 0.33942,0.0715 0.42584,0.13592 0.17279,0.12882 0.23011,0.24054 0.30744,0.36692 0.0774,0.12637 0.15259,0.26742 0.23517,0.42889 0.0229,0.045 0.0307,0.056 0.0522,0.0977 0.0705,-0.52429 -0.0709,-1.23953 -0.45734,-1.91565 -0.45117,-0.7894 -1.17474,-1.42108 -1.5017,-1.51361 -0.10853,-0.0307 -0.14289,-0.0185 -0.16382,-0.008 z"
       id="path76" />
  </g>
</svg>
